SplineFontDB: 3.0
FontName: Mittaphap
FullName: Mittaphap
FamilyName: Mittaphap
Weight: Mittel
Copyright: Copyright (c) 2010 by . All rights reserved.
Version: 001.001
ItalicAngle: 0
UnderlinePosition: -91
UnderlineWidth: 23
Ascent: 800
Descent: 200
sfntRevision: 0x00010000
LayerCount: 2
Layer: 0 0 "Back"  1
Layer: 1 0 "Fore"  0
XUID: [1021 332 469972825 15440502]
FSType: 0
OS2Version: 2
OS2_WeightWidthSlopeOnly: 0
OS2_UseTypoMetrics: 1
CreationTime: 1282831336
ModificationTime: 1363862756
PfmFamily: 17
TTFWeight: 400
TTFWidth: 5
LineGap: 17
VLineGap: 0
Panose: 2 0 5 3 0 0 0 0 0 0
OS2TypoAscent: 1200
OS2TypoAOffset: 0
OS2TypoDescent: -439
OS2TypoDOffset: 0
OS2TypoLinegap: 17
OS2WinAscent: 1200
OS2WinAOffset: 0
OS2WinDescent: 439
OS2WinDOffset: 0
HheadAscent: 1200
HheadAOffset: 0
HheadDescent: -439
HheadDOffset: 0
OS2SubXSize: 650
OS2SubYSize: 699
OS2SubXOff: 0
OS2SubYOff: 140
OS2SupXSize: 650
OS2SupYSize: 699
OS2SupXOff: 0
OS2SupYOff: 479
OS2StrikeYSize: 50
OS2StrikeYPos: 250
OS2Vendor: 'PfEd'
OS2CodePages: 00000001.80000000
OS2UnicodeRanges: 02000007.00000000.00000000.00000000
Lookup: 2 0 0 "ccmpGlyphCompositionDecompositi"  {"ccmpGlyphCompositionDecompositi subtable"  } ['ccmp' ('lao ' <'dflt' > ) ]
Lookup: 260 0 0 "cabove"  {"cabove"  } ['mark' ('DFLT' <'dflt' > 'lao ' <'dflt' > 'latn' <'dflt' > ) ]
Lookup: 260 0 0 "udia"  {"udia"  } ['mark' ('DFLT' <'dflt' > 'lao ' <'dflt' > ) ]
Lookup: 262 0 0 "tone"  {"tone"  } ['mkmk' ('DFLT' <'dflt' > 'lao ' <'dflt' > ) ]
Lookup: 260 0 0 "cbelow+-----ldia"  {"cbelow+-----ldia"  } ['mark' ('DFLT' <'dflt' > 'lao ' <'dflt' > ) ]
Lookup: 262 0 0 "lstack"  {"lstack"  } ['mkmk' ('DFLT' <'dflt' > 'lao ' <'dflt' > ) ]
Lookup: 258 0 0 "kernHorizontalKerninginLatinloo"  {"kernHorizontalKerninginLatinloo subtable" [150,15,0] } ['kern' ('latn' <'dflt' > 'DFLT' <'dflt' > ) ]
MarkAttachClasses: 1
DEI: 91125

StartChar: .notdef
Encoding: 0 -1 0
Width: 562
Flags: W
HStem: 0 50<104 460> 398 50<104 460>
VStem: 54 50<50 398> 460 48<50 398>
LayerCount: 2
Fore
SplineSet
54 448 m 1
 508 448 l 1
 508 0 l 1
 54 0 l 1
 54 448 l 1
460 398 m 1
 104 398 l 1
 104 50 l 1
 460 50 l 1
 460 398 l 1
EndSplineSet
EndChar

StartChar: uni0E82
Encoding: 98 3714 1
Width: 609
GlyphClass: 2
Flags: W
HStem: -11 21G<510 523.5> 0 56<134.952 258.138> 67 59<329.846 469.756> 298 53<123.313 191.039> 422 53<153.546 191.622> 503 56<166.739 444.9>
VStem: 50 66<357.882 417.103> 51 74<66.3368 156.144> 194 59<353.743 419.677> 483 75<357.504 468.535> 493 66<-4.09063 42.3093>
AnchorPoint: "cbelow" 440 0 basechar 0
AnchorPoint: "ldia" 440 0 basechar 0
AnchorPoint: "udia" 300 600 basechar 0
AnchorPoint: "cabove" 340 600 basechar 0
LayerCount: 2
Fore
SplineSet
116 410 m 1x3e80
 116 366 132 351 160 351 c 0
 183 351 194 370 194 386 c 0
 194 412 176 422 161 422 c 0
 147 422 130 416 116 410 c 1x3e80
493 8 m 0xbda0
 477 41 461 67 415 67 c 0
 341 67 261 0 177 0 c 0
 105 0 51 41 51 119 c 0x7da0
 51 208 161 242 281 279 c 2
 313 289 l 2
 411 320 483 343 483 410 c 0
 483 483 429 503 310 503 c 0
 240 503 186 494 153 475 c 1
 160 475 l 2
 216 475 253 439 253 384 c 0
 253 341 223 298 162 298 c 0
 95 298 50 344 50 412 c 0x7ec0
 50 522 185 559 308 559 c 0
 483 559 558 510 558 408 c 0
 558 311 444 265 349 235 c 0
 257 206 125 177 125 119 c 0
 125 92 130 56 184 56 c 0x7dc0
 247 56 327 126 412 126 c 0
 477 126 523 108 555 32 c 0
 558 24 559 21 559 16 c 0
 559 8 533 -11 514 -11 c 0
 506 -11 500 -6 493 8 c 0xbda0
EndSplineSet
EndChar

StartChar: uni0E84
Encoding: 99 3716 2
Width: 585
GlyphClass: 2
Flags: W
HStem: 0 56<127.792 192.365> 124 53<125.587 190.724> 503 56<167.522 408.89>
VStem: 50 75<60.7264 122.288 170 187 362.894 466.873> 194 59<57.9916 121.229> 460 75<0.773918 455.133>
AnchorPoint: "cbelow" 440 0 basechar 0
AnchorPoint: "ldia" 440 0 basechar 0
AnchorPoint: "udia" 300 600 basechar 0
AnchorPoint: "cabove" 340 600 basechar 0
LayerCount: 2
Fore
SplineSet
125 116 m 1
 125 87 l 2
 125 76 134 56 161 56 c 0
 176 56 194 65 194 88 c 0
 194 115 173 124 161 124 c 0
 150 124 137 120 125 116 c 1
305 503 m 0
 169 503 125 471 125 414 c 0
 125 318 241 367 241 305 c 0
 241 255 176 259 143 230 c 1
 125 187 l 1
 125 170 l 1
 138 174 152 177 165 177 c 0
 222 177 253 131 253 85 c 0
 253 34 211 0 165 0 c 0
 79 0 50 60 50 130 c 2
 50 173 l 2
 50 253 98 276 176 302 c 1
 109 302 50 346 50 413 c 0
 50 532 166 559 305 559 c 0
 475 559 535 496 535 340 c 2
 535 33 l 2
 535 0 528 0 499 0 c 0
 474 0 460 1 460 33 c 2
 460 389 l 2
 460 446 434 503 305 503 c 0
EndSplineSet
EndChar

StartChar: uni0E87
Encoding: 100 3719 3
Width: 432
GlyphClass: 2
Flags: W
HStem: -203 67<119.098 278.488> -196 60<117.881 144> 362 53<115.874 177.325>
VStem: 50 62<418.011 490.701> 179 61<416.283 494.524> 307 75<-105.019 477.369>
AnchorPoint: "cbelow" 290 -180 basechar 0
AnchorPoint: "ldia" 260 -200 basechar 0
AnchorPoint: "udia" 200 600 basechar 0
AnchorPoint: "cabove" 240 600 basechar 0
LayerCount: 2
Fore
SplineSet
153 499 m 1x3c
 121 491 112 473 112 455 c 0
 112 432 126 415 147 415 c 0
 170 415 179 430 179 447 c 0
 179 469 166 486 153 499 c 1x3c
146 -196 m 0x7c
 127 -192 117 -190 117 -167 c 0
 117 -148 127 -136 141 -136 c 2
 144 -136 l 1
 162 -138 184 -142 206 -142 c 0
 294 -142 307 -77 307 0 c 2
 307 415 l 2
 307 463 289 496 222 503 c 1
 232 490 240 472 240 449 c 0
 240 394 197 362 148 362 c 0
 93 362 50 392 50 455 c 0
 50 517 111 559 209 559 c 0
 339 559 382 488 382 368 c 2
 382 32 l 2
 382 -166 306 -203 204 -203 c 0xbc
 187 -203 155 -198 146 -196 c 0x7c
EndSplineSet
EndChar

StartChar: uni0E88
Encoding: 101 3720 4
Width: 592
GlyphClass: 2
Flags: W
HStem: 0 56<368.288 449.18> 207 52<255.75 311> 340 50<254.807 318.566> 503 54<172.349 406.068>
VStem: 50 68<332.995 452.906> 189 62<262.808 337.157> 293 69<60.0827 208.951> 323.889 57.111<264.188 334.729> 467 75<72.4366 437.648>
AnchorPoint: "cbelow" 440 0 basechar 0
AnchorPoint: "ldia" 440 0 basechar 0
AnchorPoint: "udia" 300 600 basechar 0
AnchorPoint: "cabove" 340 600 basechar 0
LayerCount: 2
Fore
SplineSet
323 264 m 1xfd80
 323.667 268 323.889 272 323.889 276 c 0
 323.889 284 323 292 323 300 c 0
 323 325 304 340 286 340 c 0
 268 340 251 327 251 302 c 0
 251 284 260 259 289 259 c 0
 300 259 314 261 323 264 c 1xfd80
467 182 m 2
 467 340 l 2
 467 473 402 503 303 503 c 0
 167 503 118 470 118 368 c 0
 118 341 112 332 83 332 c 0
 55 332 50 341 50 366 c 0
 50 514 143 557 303 557 c 0
 418 557 542 544 542 303 c 2
 542 229 l 1
 542 47 495 0 402 0 c 0
 333 0 293 37 293 112 c 0xfe80
 293 138 303 173 311 210 c 1
 304 208 296 207 288 207 c 0
 233 207 189 237 189 300 c 0
 189 349 227 390 287 390 c 0
 362 390 381 345 381 288 c 0xfd80
 381 231 362 163 362 117 c 0xfe80
 362 77 371 56 405 56 c 0
 450 56 467 88 467 182 c 2
EndSplineSet
EndChar

StartChar: uni0E8A
Encoding: 102 3722 5
Width: 608
GlyphClass: 2
Flags: W
HStem: 0 56<134.952 248.283> 84 60<354.121 454.795> 298 53<123.313 191.039> 422 53<153.546 191.622> 503 56<166.739 444.9>
VStem: 50 66<357.882 417.103> 51 74<66.3368 154.975> 194 59<353.743 419.677> 462 70<-159.096 79.6395> 483 75<-180.561 -35.0156 358.192 468.535>
AnchorPoint: "cbelow" 390 0 basechar 0
AnchorPoint: "ldia" 330 0 basechar 0
AnchorPoint: "udia" 300 600 basechar 0
AnchorPoint: "cabove" 340 600 basechar 0
LayerCount: 2
Fore
SplineSet
116 410 m 1xfd
 116 366 132 351 160 351 c 0
 183 351 194 370 194 386 c 0
 194 412 176 422 161 422 c 0
 147 422 130 416 116 410 c 1xfd
184 56 m 0
 235 56 355 144 429 144 c 0
 513 144 532 79 532 10 c 0xfb80
 532 -41 554 -100 554 -162 c 0
 554 -174 538 -185 508 -185 c 0
 497 -185 488 -180 483 -162 c 0xf940
 467 -105 462 -45 462 3 c 0
 462 69 451 84 418 84 c 0
 370 84 262 0 177 0 c 0
 105 0 51 41 51 119 c 0xfb80
 51 202 147 237 257 272 c 0
 383 312 483 330 483 410 c 0
 483 483 429 503 310 503 c 0
 240 503 186 494 153 475 c 1
 160 475 l 2
 216 475 253 439 253 384 c 0
 253 341 223 298 162 298 c 0
 95 298 50 344 50 412 c 0xfd40
 50 522 185 559 308 559 c 0
 483 559 558 510 558 408 c 0
 558 311 444 265 349 235 c 0
 257 206 125 177 125 119 c 0xfb40
 125 92 130 56 184 56 c 0
EndSplineSet
EndChar

StartChar: uni0E8D
Encoding: 103 3725 6
Width: 585
GlyphClass: 2
Flags: W
HStem: 0 56<167.522 411.756> 382 53<125.587 190.724> 503 56<127.792 192.365>
VStem: 50 75<92.1275 195.922 327.251 389 436.712 500.211> 194 59<437.358 500.555> 460 75<99.3674 558.226>
AnchorPoint: "cbelow" 440 0 basechar 0
AnchorPoint: "ldia" 440 0 basechar 0
AnchorPoint: "udia" 300 600 basechar 0
AnchorPoint: "cabove" 340 600 basechar 0
LayerCount: 2
Fore
SplineSet
125 389 m 1
 125 372 l 2
 125 291 241 320 241 253 c 0
 241 191 125 241 125 145 c 0
 125 88 169 56 305 56 c 0
 434 56 460 112 460 169 c 2
 460 526 l 2
 460 558 474 559 499 559 c 0
 528 559 535 559 535 526 c 2
 535 167 l 2
 535 48 439 0 305 0 c 0
 166 0 50 27 50 146 c 0
 50 213 109 256 176 256 c 1
 98 282 50 305 50 385 c 2
 50 428 l 2
 50 498 79 559 165 559 c 0
 211 559 253 524 253 473 c 0
 253 427 222 382 165 382 c 0
 152 382 138 385 125 389 c 1
125 443 m 1
 137 439 150 435 161 435 c 0
 173 435 194 444 194 471 c 0
 194 494 176 503 161 503 c 0
 134 503 125 483 125 472 c 2
 125 443 l 1
EndSplineSet
EndChar

StartChar: uni0E94
Encoding: 104 3732 7
Width: 579
GlyphClass: 2
Flags: W
HStem: 0 56<126.321 191.457> 124 53<124.586 189.757> 503 56<178.259 400.663>
VStem: 50 74<60.8549 122.686 170 446.479> 193 60<57.8825 121.229> 454 75<0.773918 447.271>
AnchorPoint: "cbelow" 430 0 basechar 0
AnchorPoint: "ldia" 430 0 basechar 0
AnchorPoint: "udia" 280 600 basechar 0
AnchorPoint: "cabove" 340 600 basechar 0
LayerCount: 2
Fore
SplineSet
124 116 m 1
 124 87 l 2
 124 76 134 56 161 56 c 0
 176 56 193 65 193 88 c 0
 193 115 172 124 160 124 c 0
 148 124 136 121 124 116 c 1
454 33 m 2
 454 337 l 2
 454 460 418 503 289 503 c 0
 160 503 124 460 124 340 c 2
 124 170 l 1
 137 174 151 177 164 177 c 0
 221 177 253 131 253 85 c 0
 253 34 210 0 164 0 c 0
 51 0 50 94 50 179 c 2
 50 340 l 2
 50 499 117 559 290 559 c 0
 463 559 529 499 529 342 c 2
 529 33 l 2
 529 0 522 0 493 0 c 0
 468 0 454 1 454 33 c 2
EndSplineSet
EndChar

StartChar: uni0E95
Encoding: 105 3733 8
Width: 617
GlyphClass: 2
Flags: W
HStem: 0 56<127.509 190.896> 124 53<125.564 190.224> 503 56<145.939 247.49 370.351 473.326>
VStem: 50 75<58.6241 122.523 170 480.684> 193 60<57.8825 121.229> 272 76<341.691 465.264> 492 75<0.65625 482.438>
AnchorPoint: "cbelow" 460 0 basechar 0
AnchorPoint: "ldia" 440 0 basechar 0
AnchorPoint: "udia" 290 600 basechar 0
AnchorPoint: "cabove" 340 600 basechar 0
LayerCount: 2
Fore
SplineSet
125 116 m 1
 125 87 l 2
 125 76 134 56 161 56 c 0
 176 56 193 65 193 88 c 0
 193 115 172 124 160 124 c 0
 149 124 136 120 125 116 c 1
567 330 m 2
 567 33 l 2
 567 0 559 0 530 0 c 0
 505 0 492 1 492 33 c 2
 492 377 l 2
 492 471 475 503 425 503 c 0
 372 503 348 475 348 369 c 0
 348 347 333 340 309 340 c 0
 287 340 272 344 272 369 c 0
 272 476 245 503 193 503 c 0
 127 503 125 433 125 375 c 2
 125 170 l 1
 138 174 152 177 165 177 c 0
 222 177 253 131 253 85 c 0
 253 34 211 0 165 0 c 0
 54 0 50 90 50 174 c 2
 50 352 l 2
 50 505 94 559 193 559 c 0
 243 559 291 541 308 466 c 1
 328 544 380 559 430 559 c 0
 523 559 567 512 567 330 c 2
EndSplineSet
EndChar

StartChar: uni0E96
Encoding: 106 3734 9
Width: 710
GlyphClass: 2
Flags: W
HStem: 0 56<260.825 325.418> 124 53<258.586 323.757> 390 48<106.545 183.228> 508 51<106.406 177.455 366.965 516.553>
VStem: 50 54<440.982 504.987> 184 74<58.5449 122.686 170 399> 327 60<57.9916 121.229> 557 75<-85.6846 466.609>
AnchorPoint: "cbelow" 460 0 basechar 0
AnchorPoint: "ldia" 440 0 basechar 0
AnchorPoint: "udia" 350 600 basechar 0
AnchorPoint: "cabove" 440 600 basechar 0
LayerCount: 2
Fore
SplineSet
184 452 m 1
 184 479 176 508 143 508 c 0
 121 508 104 498 104 475 c 0
 104 457 109 438 144 438 c 0
 154 438 168 444 184 452 c 1
258 116 m 1
 258 87 l 2
 258 76 267 56 294 56 c 0
 309 56 327 65 327 88 c 0
 327 115 306 124 294 124 c 0
 282 124 270 121 258 116 c 1
258 170 m 1
 271 174 285 177 298 177 c 0
 355 177 387 131 387 85 c 0
 387 34 344 0 298 0 c 0
 212 0 184 61 184 130 c 2
 184 399 l 1
 167 393 151 390 135 390 c 0
 75 390 50 419 50 478 c 0
 50 529 84 559 146 559 c 0
 202 559 236 536 250 491 c 1
 305 524 373 559 448 559 c 0
 553 559 632 509 632 390 c 2
 632 50 l 2
 632 -32 660 -95 660 -119 c 0
 660 -139 630 -145 612 -145 c 0
 599 -145 588 -139 584 -120 c 2
 584 -120 557 -28 557 50 c 2
 557 390 l 2
 557 447 539 503 449 503 c 0
 384 503 319 467 258 435 c 1
 258 170 l 1
EndSplineSet
EndChar

StartChar: uni0E97
Encoding: 107 3735 10
Width: 677
GlyphClass: 2
Flags: W
HStem: 0 56<169.045 294.441> 382 53<112.925 157.766> 506 53<111.596 173.845 422.355 522.342>
VStem: 50 59<438.103 503.191> 70 74<81.3132 263.482> 179 72<442.282 502.448> 321 76<85.9012 479.535> 552 75<1.12229 475.455>
AnchorPoint: "cbelow" 520 0 basechar 0
AnchorPoint: "ldia" 520 0 basechar 0
AnchorPoint: "udia" 330 600 basechar 0
AnchorPoint: "cabove" 440 600 basechar 0
LayerCount: 2
Fore
SplineSet
179 442 m 1xf7
 180 448 179 455 179 461 c 0
 179 493 162 506 144 506 c 0xef
 127 506 109 496 109 471 c 0
 109 450 125 435 145 435 c 0
 155 435 168 438 179 442 c 1xf7
627 344 m 2
 627 35 l 2
 627 6 620 0 591 0 c 0
 566 0 552 3 552 35 c 2
 552 332 l 2
 552 424 551 503 474 503 c 0
 405 503 397 448 397 382 c 2
 397 202 l 2
 397 25 317 0 232 0 c 0
 116 0 70 59 70 172 c 0xef
 70 261 126 319 158 382 c 1
 153 381 148 382 143 382 c 0
 91 382 50 416 50 472 c 0xf7
 50 527 92 559 145 559 c 0
 200 559 251 517 251 456 c 0
 251 347 144 312 144 167 c 0
 144 89 168 56 233 56 c 0
 319 56 321 122 321 214 c 2
 321 376 l 2
 321 523 392 559 474 559 c 0
 588 559 627 500 627 344 c 2
EndSplineSet
EndChar

StartChar: uni0E99
Encoding: 108 3737 11
Width: 672
GlyphClass: 2
Flags: W
HStem: 0 56<50.2051 158.672 317.578 503.133> 382 53<128.243 193.413> 503 56<126.582 191.491>
VStem: 65 60<437.358 500.555> 194 75<105.461 389 436.712 498.806> 547 75<101.709 557.878>
AnchorPoint: "cbelow" 500 0 basechar 0
AnchorPoint: "ldia" 500 0 basechar 0
AnchorPoint: "udia" 340 600 basechar 0
AnchorPoint: "cabove" 440 600 basechar 0
LayerCount: 2
Fore
SplineSet
194 443 m 1
 194 472 l 2
 194 483 185 503 158 503 c 0
 143 503 125 494 125 471 c 0
 125 444 146 435 158 435 c 0
 169 435 182 439 194 443 c 1
412 56 m 0
 502 56 547 82 547 208 c 2
 547 524 l 2
 547 556 559 559 584 559 c 0
 613 559 622 553 622 524 c 2
 622 207 l 2
 622 21 516 0 411 0 c 0
 344 0 257 23 235 88 c 1
 222 29 158 0 75 0 c 0
 61 0 50 0 50 25 c 0
 50 55 54 58 71 58 c 0
 182 58 194 99 194 229 c 2
 194 389 l 1
 181 385 167 382 154 382 c 0
 97 382 65 427 65 473 c 0
 65 524 108 559 154 559 c 0
 265 559 269 466 269 382 c 2
 269 208 l 2
 269 83 322 56 412 56 c 0
EndSplineSet
EndChar

StartChar: uni0E9A
Encoding: 109 3738 12
Width: 614
GlyphClass: 2
Flags: W
HStem: 0 56<198.014 427.435> 382 53<112.687 158.689> 503 56<111.42 175.907>
VStem: 50 59<437.581 500.203> 81 75<95.8603 261.652> 179 72<443.282 499.397> 489 75<117.281 557.838>
AnchorPoint: "cbelow" 460 0 basechar 0
AnchorPoint: "ldia" 440 0 basechar 0
AnchorPoint: "udia" 300 600 basechar 0
AnchorPoint: "cabove" 340 600 basechar 0
LayerCount: 2
Fore
SplineSet
179 443 m 1xf6
 180 449 179 456 179 463 c 0
 179 492 163 503 145 503 c 0
 129 503 109 496 109 471 c 0
 109 445 128 435 144 435 c 0
 155 435 168 439 179 443 c 1xf6
564 226 m 2
 564 52 478 0 322 0 c 0
 182 0 81 31 81 178 c 0xee
 81 268 130 322 159 382 c 1
 153 381 147 382 141 382 c 0
 93 382 50 415 50 471 c 0xf6
 50 526 81 559 145 559 c 0
 208 559 251 510 251 456 c 0
 251 439 248 422 244 406 c 0
 222 326 156 257 156 178 c 0xee
 156 86 191 56 320 56 c 0
 462 56 489 120 489 213 c 2
 489 523 l 2
 489 555 502 559 527 559 c 0
 556 559 564 552 564 523 c 2
 564 226 l 2
EndSplineSet
EndChar

StartChar: uni0E9B
Encoding: 110 3739 13
Width: 634
GlyphClass: 2
Flags: W
HStem: 0 56<198.623 419.409> 382 53<112.687 158.689> 503 56<111.42 175.907>
VStem: 50 59<437.581 500.203> 81 75<96.9777 261.652> 179 72<443.282 499.397> 480 75<116.016 658.737>
AnchorPoint: "cbelow" 460 0 basechar 0
AnchorPoint: "ldia" 440 0 basechar 0
AnchorPoint: "udia" 250 600 basechar 0
AnchorPoint: "cabove" 340 600 basechar 0
LayerCount: 2
Fore
SplineSet
179 443 m 1xf6
 180 449 179 456 179 463 c 0
 179 492 163 503 145 503 c 0
 129 503 109 496 109 471 c 0
 109 445 128 435 144 435 c 0
 155 435 168 439 179 443 c 1xf6
555 526 m 2
 555 226 l 2
 555 49 478 0 322 0 c 0
 182 0 81 31 81 178 c 0xee
 81 268 130 322 159 382 c 1
 153 381 147 382 141 382 c 0
 93 382 50 415 50 471 c 0xf6
 50 526 81 559 145 559 c 0
 208 559 251 510 251 456 c 0
 251 439 248 422 244 406 c 0
 222 326 156 257 156 178 c 0xee
 156 86 194 56 320 56 c 0
 447 56 480 118 480 214 c 2
 480 526 l 2
 480 604 507 695 507 695 c 1
 511 712 521 721 536 721 c 0
 568 721 584 705 584 694 c 0
 584 670 555 608 555 526 c 2
EndSplineSet
EndChar

StartChar: uni0E9C
Encoding: 111 3740 14
Width: 661
GlyphClass: 2
Flags: W
HStem: 1 55<141.411 245.41 370.034 470.487> 384 51<125.564 189.86> 391 47<125 159.483 420.882 490> 508 53<128.477 190.481 419.802 483.088> 613 20G<566 590>
VStem: 50 75<71.3395 391 436.793 503.697> 193 60<438.551 506.004> 271 75<87.7674 275.541> 364 54<442.453 501.99> 490 76<73.8552 394 438.423 456.033> 551 60<508.537 617.099>
AnchorPoint: "cbelow" 460 0 basechar 0
AnchorPoint: "ldia" 440 0 basechar 0
AnchorPoint: "udia" 300 600 basechar 0
AnchorPoint: "cabove" 340 600 basechar 0
LayerCount: 2
Fore
SplineSet
125 444 m 1xdf80
 136 440 149 435 160 435 c 0
 172 435 193 446 193 473 c 0
 193 496 176 508 161 508 c 0
 134 508 125 485 125 474 c 0
 125 464 125 454 125 444 c 1xdf80
490 444 m 1xbfc0
 490 451 l 2
 490 478 485 503 452 503 c 0
 436 503 418 503 418 474 c 0
 418 452 436 438 460 438 c 0
 470 438 481 440 490 444 c 1xbfc0
191 1 m 0
 92 1 50 55 50 208 c 2
 50 391 l 2xbfc0
 50 473 58 561 165 561 c 0
 211 561 253 526 253 475 c 0
 253 429 222 384 165 384 c 0xdfc0
 152 384 138 387 125 391 c 1
 125 312 126 248 126 185 c 0
 126 103 127 56 193 56 c 0
 233 56 271 75 271 181 c 1
 271 249 l 2
 271 274 285 277 307 277 c 0
 331 277 346 271 346 249 c 2
 346 181 l 2
 346 74 381 56 423 56 c 0
 473 56 490 88 490 182 c 2
 490 394 l 1xbfc0
 479 392 468 391 457 391 c 0
 406 391 364 414 364 472 c 0
 364 524 404 559 457 559 c 0
 506 559 533 537 548 508 c 1
 550 516 551 524 551 532 c 0
 551 570 536 597 536 605 c 0
 536 631 554 633 578 633 c 0
 602 633 611 593 611 539 c 0xbfa0
 611 490 592 454 565 430 c 1
 565 417 566 403 566 391 c 2
 566 230 l 2
 566 48 523 1 430 1 c 0
 380 1 327 8 307 86 c 1
 290 11 241 1 191 1 c 0
EndSplineSet
EndChar

StartChar: uni0E9D
Encoding: 112 3741 15
Width: 645
GlyphClass: 2
Flags: W
HStem: 0 56<141.314 246.525 369.87 470.987> 384 51<126.54 188.926> 503 56<127.911 192.131>
VStem: 50 76<71.844 390 436.659 498.536> 193 60<438.551 501.71> 272 75<85.5444 275.541> 491 75<76.5625 658.737>
AnchorPoint: "cbelow" 470 0 basechar 0
AnchorPoint: "ldia" 440 0 basechar 0
AnchorPoint: "udia" 250 600 basechar 0
AnchorPoint: "cabove" 340 600 basechar 0
LayerCount: 2
Fore
SplineSet
126 444 m 1
 137 440 149 435 160 435 c 0
 172 435 193 446 193 473 c 0
 193 496 176 503 161 503 c 0
 145 503 126 494 126 474 c 2
 126 444 l 1
595 694 m 0
 595 670 566 608 566 526 c 2
 566 229 l 2
 566 47 523 0 430 0 c 0
 380 0 327 7 307 85 c 1
 290 10 243 0 193 0 c 0
 79 0 50 65 50 252 c 2
 50 430 l 2
 50 499 79 559 165 559 c 0
 211 559 253 526 253 475 c 0
 253 429 220 384 163 384 c 0
 151 384 138 386 126 390 c 1
 126 183 l 2
 126 104 126 56 193 56 c 0
 234 56 272 74 272 180 c 1
 272 249 l 2
 272 274 286 277 308 277 c 0
 332 277 347 271 347 249 c 2
 347 180 l 2
 347 73 382 56 424 56 c 0
 474 56 491 88 491 182 c 2
 491 526 l 2
 491 604 519 695 519 695 c 2
 522 708 531 721 547 721 c 0
 579 721 595 705 595 694 c 0
EndSplineSet
EndChar

StartChar: uni0E9E
Encoding: 113 3742 16
Width: 644
GlyphClass: 2
Flags: W
HStem: 0 56<168.236 273.159 398.214 500.326> 382 53<112.925 157.766> 503 56<111.184 175.634>
VStem: 50 59<438.103 500.882> 70 74<81.3132 263.482> 179 72<442.282 500.157> 299 75<85.1292 557.541> 519 75<76.5625 557.71>
AnchorPoint: "cbelow" 490 0 basechar 0
AnchorPoint: "ldia" 460 0 basechar 0
AnchorPoint: "udia" 325 600 basechar 0
AnchorPoint: "cabove" 440 600 basechar 0
LayerCount: 2
Fore
SplineSet
179 442 m 1xf7
 180 448 179 455 179 461 c 0
 179 493 162 503 144 503 c 0xef
 127 503 109 496 109 471 c 0
 109 450 125 435 145 435 c 0
 155 435 168 438 179 442 c 1xf7
220 56 m 0
 259 56 299 73 299 180 c 2
 299 531 l 2
 299 556 313 559 335 559 c 0
 359 559 374 553 374 531 c 2
 374 180 l 2
 374 73 410 56 452 56 c 0
 502 56 519 88 519 182 c 2
 519 524 l 2
 519 556 534 559 559 559 c 0
 588 559 594 553 594 524 c 2
 594 229 l 2
 594 47 550 0 457 0 c 0
 407 0 354 7 334 85 c 1
 317 10 268 0 218 0 c 0
 123 0 70 59 70 172 c 0xef
 70 261 126 319 158 382 c 1
 153 381 148 382 143 382 c 0
 91 382 50 416 50 472 c 0xf7
 50 527 92 559 145 559 c 0
 200 559 251 517 251 456 c 0
 251 347 144 312 144 167 c 0
 144 89 171 56 220 56 c 0
EndSplineSet
EndChar

StartChar: uni0E9F
Encoding: 114 3743 17
Width: 673
GlyphClass: 2
Flags: W
HStem: 0 56<168.902 273.379 398.214 474.401> 382 53<112.369 157.78> 503 56<111.184 175.634>
VStem: 50 59<438.103 500.882> 70 74<81.6761 264.992> 179 72<442.282 500.157> 299 75<85.1292 557.864> 519 75<146.674 658.737>
AnchorPoint: "cbelow" 510 0 basechar 0
AnchorPoint: "ldia" 460 0 basechar 0
AnchorPoint: "udia" 300 600 basechar 0
AnchorPoint: "cabove" 390 600 basechar 0
LayerCount: 2
Fore
SplineSet
179 442 m 1xf7
 180 448 179 455 179 461 c 0
 179 493 162 503 144 503 c 0xef
 127 503 109 496 109 471 c 0
 109 450 125 435 145 435 c 0
 155 435 168 438 179 442 c 1xf7
519 382 m 2
 519 526 l 2
 519 604 547 695 547 695 c 1
 551 712 561 721 575 721 c 0
 607 721 623 705 623 694 c 0
 623 670 594 608 594 526 c 2
 594 229 l 2
 594 47 550 0 457 0 c 0
 407 0 354 7 334 85 c 1
 317 10 269 0 218 0 c 0
 123 0 70 59 70 172 c 0xef
 70 261 126 321 158 384 c 1
 153 383 148 382 143 382 c 0
 91 382 50 416 50 472 c 0xf7
 50 527 92 559 145 559 c 0
 200 559 251 517 251 456 c 0
 251 438 248 422 243 407 c 0
 218 332 144 288 144 167 c 0
 144 91 171 56 220 56 c 0
 259 56 299 73 299 180 c 2
 299 533 l 2
 299 558 313 559 335 559 c 0
 359 559 374 555 374 533 c 2
 374 180 l 2
 374 73 410 56 452 56 c 0
 502 56 519 288 519 382 c 2
EndSplineSet
EndChar

StartChar: uni0EA1
Encoding: 115 3745 18
Width: 760
GlyphClass: 2
Flags: W
HStem: 0 56<114.636 177.546 372.276 577.575> 125 54<113.389 176.392>
VStem: 50 62<55.3074 122.426> 180 46<66.296 122.93> 235 76<117.682 557.666> 636 74<116.438 557.961>
AnchorPoint: "cbelow" 590 0 basechar 0
AnchorPoint: "ldia" 580 0 basechar 0
AnchorPoint: "udia" 450 600 basechar 0
AnchorPoint: "cabove" 490 600 basechar 0
LayerCount: 2
Fore
SplineSet
172 54 m 1
 176 62 180 75 180 84 c 0
 180 105 170 125 147 125 c 0
 121 125 112 110 112 92 c 0
 112 72 123 53 147 53 c 0
 156 53 164 54 172 54 c 1
278 87 m 1
 266 17 215 0 147 0 c 0
 77 0 50 46 50 90 c 0
 50 153 87 179 147 179 c 0
 191 179 226 155 226 111 c 0
 226 92 222 76 218 66 c 1
 232 77 235 98 235 135 c 2
 235 524 l 2
 235 552 245 559 274 559 c 0
 299 559 311 556 311 524 c 2
 311 209 l 2
 311 83 387 56 477 56 c 0
 567 56 636 82 636 208 c 2
 636 524 l 2
 636 556 649 559 674 559 c 0
 703 559 710 553 710 524 c 2
 710 252 l 2
 710 24 603 0 475 0 c 0
 412 0 301 21 278 87 c 1
EndSplineSet
EndChar

StartChar: uni0EA2
Encoding: 116 3746 19
Width: 589
GlyphClass: 2
Flags: W
HStem: 0 56<179.106 389.745> 384 51<142.54 206.611> 503 56<144.005 208.684>
VStem: 60 75<93.8861 195.68> 67 75<316.859 390 437.109 499.864> 210 60<438.551 501.71> 445 75<108.451 658.737>
AnchorPoint: "cbelow" 450 0 basechar 0
AnchorPoint: "ldia" 410 0 basechar 0
AnchorPoint: "udia" 233 600 basechar 0
AnchorPoint: "cabove" 340 600 basechar 0
LayerCount: 2
Fore
SplineSet
142 445 m 1xee
 153 441 166 435 177 435 c 0
 189 435 210 446 210 473 c 0
 210 496 193 503 178 503 c 0
 151 503 142 485 142 474 c 2
 142 445 l 1xee
67 416 m 2
 67 430 l 2
 67 502 95 559 181 559 c 0
 227 559 270 526 270 475 c 0
 270 429 236 384 179 384 c 0
 166 384 154 386 142 390 c 1
 142 363 l 2xee
 142 272 251 329 251 261 c 0
 251 198 135 239 135 146 c 0
 135 71 222 56 297 56 c 0
 372 56 445 86 445 178 c 2
 445 526 l 2
 445 604 473 695 473 695 c 2
 477 714 488 721 501 721 c 0
 507 721 514 719 522 717 c 0
 542 711 549 706 549 694 c 0
 549 670 520 608 520 526 c 2
 520 225 l 2
 520 45 436 0 292 0 c 0
 135 0 60 53 60 145 c 0xf6
 60 230 138 253 187 261 c 1
 181 263 174 265 168 266 c 0
 110 280 67 290 67 416 c 2
EndSplineSet
EndChar

StartChar: uni0EA3
Encoding: 117 3747 20
Width: 606
GlyphClass: 2
Flags: W
HStem: 0 56<183.086 433.474> 94 53<151.445 191.622> 218 53<123.178 190.974> 503 56<158.616 410.666>
VStem: 50 71<151.89 213.572 397.845 470.882> 194 59<149.323 216.503> 481 72<96.012 207.942>
AnchorPoint: "cbelow" 440 0 basechar 0
AnchorPoint: "ldia" 440 0 basechar 0
AnchorPoint: "udia" 300 600 basechar 0
AnchorPoint: "cabove" 340 600 basechar 0
LayerCount: 2
Fore
SplineSet
116 159 m 1
 130 153 147 147 161 147 c 0
 176 147 194 157 194 183 c 0
 194 199 185 218 162 218 c 0
 134 218 116 203 116 159 c 1
556 442 m 0
 556 430 529 407 517 407 c 2
 515 407 l 2
 508 407 502 413 495 423 c 0
 453 480 366 503 286 503 c 0
 198 503 121 487 121 429 c 0
 121 378 253 354 346 327 c 0
 450 297 553 252 553 155 c 0
 553 55 478 0 303 0 c 0
 180 0 50 47 50 157 c 0
 50 225 97 271 164 271 c 0
 225 271 253 228 253 185 c 0
 253 130 216 94 160 94 c 0
 157 94 154 94 151 94 c 1
 187 69 244 56 305 56 c 0
 414 56 481 80 481 153 c 0
 481 222 410 245 304 274 c 0
 293 277 283 280 273 283 c 0
 153 315 50 340 50 429 c 0
 50 526 138 559 284 559 c 0
 409 559 500 525 546 463 c 0
 553 454 556 448 556 442 c 0
EndSplineSet
EndChar

StartChar: uni0EA5
Encoding: 118 3749 21
Width: 603
GlyphClass: 2
Flags: W
HStem: 0 53<122.104 189.709 420.808 473.367> 124 53<137.375 190.522> 206 56<147.917 275.422> 503 56<171.233 425.606>
VStem: 50 65<59.7632 119.967> 60 65<342.17 455.557> 193 59<55.4689 121.68> 477.028 75.972<57.6808 452.08>
AnchorPoint: "cbelow" 440 0 basechar 0
AnchorPoint: "ldia" 440 0 basechar 0
AnchorPoint: "udia" 300 600 basechar 0
AnchorPoint: "cabove" 340 600 basechar 0
LayerCount: 2
Fore
SplineSet
115 112 m 1xfb
 115 63 136 53 159 53 c 0
 181 53 193 68 193 90 c 0
 193 108 181 124 159 124 c 0
 146 124 129 118 115 112 c 1xfb
313 559 m 0
 410 559 553 556 553 350 c 2
 553 133 l 2
 553 26 511 0 461 0 c 0
 295 0 366 206 207 206 c 0
 179 206 154 193 137 174 c 1
 145 176 153 177 161 177 c 0
 230 177 252 124 252 89 c 0
 252 53 234 0 161 0 c 0
 85 0 50 56 50 115 c 0xfb
 50 222 149 262 218 262 c 0
 393 262 386 56 449 56 c 0
 475.471 56 477.028 72.3495 477.028 119.474 c 0
 477.028 125.758 477 132.588 477 140 c 2
 477 351 l 2
 477 473 428 503 313 503 c 0
 200 503 125 500 125 366 c 0
 125 345 124 342 93 342 c 0
 65 342 60 343 60 368 c 0xf7
 60 516 139 559 313 559 c 0
EndSplineSet
EndChar

StartChar: uni0EA7
Encoding: 119 3751 22
Width: 607
GlyphClass: 2
Flags: W
HStem: 0 56<175.937 416.089> 84 53<160 189.285> 208 53<123.13 190.561> 503 56<175.833 428.316>
VStem: 50 65<141.897 201.118> 64 65<342.17 455.557> 193 59<139.367 205.515> 482 75<117.703 448.469>
AnchorPoint: "cbelow" 440 0 basechar 0
AnchorPoint: "ldia" 440 0 basechar 0
AnchorPoint: "udia" 300 600 basechar 0
AnchorPoint: "cabove" 340 600 basechar 0
LayerCount: 2
Fore
SplineSet
115 149 m 1xfb
 129 143 146 137 159 137 c 0
 174 137 193 146 193 172 c 0
 193 188 184 208 161 208 c 0
 133 208 115 193 115 149 c 1xfb
160 84 m 1
 198 65 253 56 309 56 c 0
 418 56 482 98 482 199 c 2
 482 351 l 2
 482 473 433 503 318 503 c 0
 205 503 129 500 129 366 c 0
 129 345 128 342 97 342 c 0
 69 342 64 343 64 368 c 0xf7
 64 516 144 559 318 559 c 0
 439 559 557 556 557 300 c 2
 557 201 l 2
 557 78 482 0 307 0 c 0
 184 0 50 37 50 147 c 0
 50 215 95 261 162 261 c 0
 223 261 252 218 252 175 c 0
 252 120 216 84 160 84 c 1
EndSplineSet
EndChar

StartChar: uni0EAA
Encoding: 120 3754 23
Width: 606
GlyphClass: 2
Flags: W
HStem: 0 51<129.281 202.013 415.199 460.491> 116 54<138.537 201.277> 183 64<138.649 270.917> 328 61<133.859 339.397> 503 56<145.655 389.869>
VStem: 50 65<408.773 475.782> 55 67<56.8074 112.961> 203 59<52.7897 113.75> 467 76<57.6808 414.178>
AnchorPoint: "cbelow" 440 0 basechar 0
AnchorPoint: "ldia" 440 0 basechar 0
AnchorPoint: "udia" 300 600 basechar 0
AnchorPoint: "cabove" 340 600 basechar 0
LayerCount: 2
Fore
SplineSet
122 104 m 1xfb80
 122 62 143 51 167 51 c 0
 190 51 203 57 203 84 c 0
 203 107 191 116 166 116 c 0
 148 116 133 111 122 104 c 1xfb80
418 464 m 1
 378 497 318 503 259 503 c 0
 197 503 115 488 115 439 c 0xfd80
 115 406 175 389 231 389 c 0
 318 389 379 426 418 464 c 1
451 0 m 0
 286 0 356 183 197 183 c 0
 170 183 150 177 138 165 c 1
 147 168 157 170 167 170 c 0
 241 170 262 120 262 85 c 0
 262 37 239 0 166 0 c 0
 90 0 55 49 55 108 c 0xfb80
 55 215 139 247 208 247 c 0
 384 247 383 56 439 56 c 0
 466 56 467 78 467 195 c 2
 467 341 l 2
 467 371 462 396 454 416 c 1
 415 378 346 328 236 328 c 0
 155 328 50 346 50 441 c 0
 50 533 139 559 261 559 c 0
 331 559 404 549 459 514 c 1
 480 546 498 581 498 581 c 2
 505 593 510 597 517 597 c 0
 526 597 556 581 556 568 c 0
 556 547 531 507 504 473 c 1
 528 441 543 398 543 340 c 2
 543 133 l 2
 543 26 501 0 451 0 c 0
EndSplineSet
EndChar

StartChar: uni0EAB
Encoding: 121 3755 24
Width: 801
GlyphClass: 2
Flags: W
HStem: 0 56<188.17 352.023> 379 56<102.687 148.689 325.371 396.39> 506 53<101.871 164.057 326.247 389.618 520.211 640.005>
VStem: 40 59<437.581 502.463> 71 75<96.29 261.652> 169 72<443.282 501.62> 261 62<436.454 504.022> 397 75<105.741 388 438.754 463.018> 668 73<0.68021 476.848>
AnchorPoint: "cbelow" 630 0 basechar 0
AnchorPoint: "ldia" 640 0 basechar 0
AnchorPoint: "udia" 400 600 basechar 0
AnchorPoint: "cabove" 490 600 basechar 0
LayerCount: 2
Fore
SplineSet
169 443 m 1xf780
 170 449 169 456 169 463 c 0
 169 492 153 506 135 506 c 0
 119 506 99 496 99 471 c 0
 99 445 118 435 134 435 c 0
 145 435 158 439 169 443 c 1xf780
397 450 m 1
 397 478 386 506 357 506 c 0
 335 506 323 492 323 469 c 0
 323 446 335 435 357 435 c 0
 371 435 384 442 397 450 c 1
576 558 m 0
 706 558 741 495 741 339 c 2
 741 34 l 2
 741 5 734 0 705 0 c 0
 682 0 668 1 668 28 c 2
 668 400 l 2
 668 454 656 503 577 503 c 0
 535 503 503 473 471 443 c 1
 471 438 472 433 472 428 c 2
 472 261 l 2
 472 72 416 0 279 0 c 0
 183 0 71 31 71 178 c 0xef80
 71 268 120 322 149 382 c 1
 143 381 137 382 131 382 c 0
 83 382 40 415 40 471 c 0xf780
 40 526 71 559 135 559 c 0
 198 559 241 510 241 456 c 0
 241 439 238 422 234 406 c 0
 212 326 146 257 146 178 c 0xef80
 146 88 190 56 280 56 c 0
 353 56 397 98 397 206 c 2
 397 388 l 1
 384 383 370 379 355 379 c 0
 301 379 261 410 261 469 c 0
 261 518 285 559 358 559 c 0
 406 559 438 536 456 501 c 1
 488 530 525 558 576 558 c 0
EndSplineSet
EndChar

StartChar: uni0EAD
Encoding: 122 3757 25
Width: 607
GlyphClass: 2
Flags: W
HStem: 0 56<150.881 414.855> 80 48<144 173.819> 200 48<106.361 173.594> 299 61<164.766 445.199> 503 56<169.913 433.43>
VStem: 40 59<135.175 193.851> 64 66<390.626 470.085> 177 54<130.384 198.051> 482 75<118.051 333>
AnchorPoint: "cbelow" 452 0 basechar 0
AnchorPoint: "ldia" 432 0 basechar 0
AnchorPoint: "udia" 300 600 basechar 0
AnchorPoint: "cabove" 340 600 basechar 0
LayerCount: 2
Fore
SplineSet
477 424 m 1xfb80
 461 486 406 503 314 503 c 0
 221 503 130 490 130 428 c 0
 130 374 215 360 310 360 c 0
 406 360 469 374 477 424 c 1xfb80
99 142 m 1xfd80
 112 136 131 128 143 128 c 0
 157 128 177 136 177 163 c 0
 177 178 167 200 145 200 c 0
 116 200 99 186 99 142 c 1xfd80
301 56 m 0
 410 56 482 93 482 194 c 2
 482 333 l 1
 439 306 380 299 310 299 c 0
 202 299 64 320 64 428 c 0xfb80
 64 525 168 559 314 559 c 0
 444 559 557 530 557 359 c 2
 557 196 l 2
 557 73 474 0 299 0 c 0
 176 0 40 36 40 140 c 0
 40 205 82 248 146 248 c 0
 204 248 231 207 231 166 c 0
 231 114 197 80 144 80 c 1
 179 62 244 56 301 56 c 0
EndSplineSet
EndChar

StartChar: uni0EAE
Encoding: 123 3758 26
Width: 608
GlyphClass: 2
Flags: W
HStem: 0 56<166.739 444.9> 84 53<153.546 191.622> 208 53<123.313 190.888> 458 63<272.325 458.617> 503 56<135.11 266.732>
VStem: 50 66<141.897 201.118> 51 74<403.087 493.447> 194 59<139.245 205.203> 483 75<90.1119 200.743>
AnchorPoint: "cbelow" 460 0 basechar 0
AnchorPoint: "ldia" 440 0 basechar 0
AnchorPoint: "udia" 300 600 basechar 0
AnchorPoint: "cabove" 340 600 basechar 0
LayerCount: 2
Fore
SplineSet
116 149 m 1xe580
 130 143 147 137 161 137 c 0
 176 137 194 146 194 172 c 0
 194 188 183 208 160 208 c 0
 132 208 116 193 116 149 c 1xe580
51 439 m 0xeb80
 51 516 105 559 177 559 c 0xeb80
 262 559 304 521 368 521 c 0
 423 521 456 538 490 561 c 0
 497 566 502 571 510 571 c 0
 521 571 543 549 543 537 c 0
 543 530 536 526 531 519 c 0
 505 486 439 458 366 458 c 0xf380
 295 458 242 503 181 503 c 0
 126 503 125 458 125 439 c 0xeb80
 125 381 257 352 349 323 c 0
 444 293 558 248 558 151 c 0
 558 49 483 0 308 0 c 0
 185 0 50 37 50 147 c 0xed80
 50 215 95 261 162 261 c 0
 223 261 253 218 253 175 c 0
 253 120 216 84 160 84 c 2
 153 84 l 1
 186 65 240 56 310 56 c 0
 429 56 483 75 483 148 c 0
 483 211 420 236 331 264 c 1
 211 304 51 336 51 439 c 0xeb80
EndSplineSet
EndChar

StartChar: uni0EAF
Encoding: 124 3759 27
Width: 578
GlyphClass: 2
Flags: W
HStem: 272 61<142.6 304.484> 380 55<117.518 195.241> 503 56<119.604 194.095>
VStem: 40 73<441.107 497.568> 197 62<436.947 500.396>
DStem2: 409 368 204 -205 0.431236 0.902239<-605.386 0>
LayerCount: 2
Fore
SplineSet
113 457 m 1
 126 443 142 435 164 435 c 0
 191 435 197 451 197 469 c 0
 197 489 185 503 158 503 c 0
 128 503 113 483 113 457 c 1
183 -225 m 1
 167 -225 143 -209 140 -198 c 1
 140 -194 l 1
 146 -173 l 1
 409 368 l 2
 409 368 348 272 223 272 c 0
 104 272 40 327 40 424 c 0
 40 501 70 559 158 559 c 0
 227 559 259 516 259 472 c 0
 259 409 220 380 170 380 c 0
 149 380 131 385 117 393 c 1
 128 351 163 333 224 333 c 0
 328 333 421 439 483 558 c 0
 491 574 498 581 508 581 c 0
 527 581 556 560 558 549 c 1
 558 545 l 1
 551 521 l 1
 204 -205 l 1
 183 -225 l 1
EndSplineSet
EndChar

StartChar: uni0EB0
Encoding: 125 3760 28
Width: 520
GlyphClass: 2
Flags: W
HStem: 32 67<218 343.539> 175 52<113.33 170.359> 338 67<218 343.539> 481 52<113.33 170.359>
VStem: 50 62<118.715 173.639 424.715 479.639> 171 59<108.352 173.592 414.352 479.592> 405 65<167.844 233.027 473.844 539.027>
LayerCount: 2
Fore
SplineSet
158 414 m 1
 165 425 171 438 171 451 c 0
 171 472 162 481 141 481 c 0
 121 481 112 471 112 453 c 0
 112 437 127 423 158 414 c 1
158 108 m 1
 165 119 171 132 171 145 c 0
 171 166 162 175 141 175 c 0
 121 175 112 165 112 147 c 0
 112 131 127 117 158 108 c 1
470 522 m 0
 470 476 453 338 246 338 c 0
 123 338 50 387 50 452 c 0
 50 510 97 533 141 533 c 0
 192 533 230 508 230 453 c 0
 230 434 225 419 218 406 c 1
 227 406 236 405 246 405 c 0
 373 405 375 454 405 525 c 0
 409 535 415 541 428 541 c 0
 451 541 470 535 470 522 c 0
470 216 m 0
 470 170 453 32 246 32 c 0
 123 32 50 81 50 146 c 0
 50 204 97 227 141 227 c 0
 192 227 230 202 230 147 c 0
 230 128 225 113 218 100 c 1
 227 100 236 99 246 99 c 0
 373 99 375 148 405 219 c 0
 409 229 415 235 428 235 c 0
 451 235 470 229 470 216 c 0
EndSplineSet
EndChar

StartChar: uni0EB1
Encoding: 126 3761 29
Width: 0
GlyphClass: 4
Flags: W
HStem: 629 58<-320 -196.054> 762 53<-424.72 -367.534>
VStem: -488 62<706.484 760.705> -367 59<696.566 760.894> -141 73<734.93 816.354>
AnchorPoint: "tone" -250 880 basemark 0
AnchorPoint: "udia" -300 600 mark 0
LayerCount: 2
Back
SplineSet
-68 798 m 4
 -68 811 -80 822 -103 822 c 4
 -124.458 822 -127.63 804.109 -133 788 c 4
 -156 727 -188 687 -292 687 c 4
 -301.826 687 -311.062 687.229 -319.724 687.671 c 5
 -312.901 700.673 -308 716.449 -308 735 c 4
 -308 790 -346 815 -397 815 c 4
 -441 815 -488 792 -488 734 c 4
 -488 669 -417 629 -294 629 c 4
 -106 629 -68 752 -68 798 c 4
-380.298 696.263 m 5
 -411.758 704.914 -426 718.889 -426 735 c 4
 -426 753 -417 762 -397 762 c 4
 -376 762 -367 754 -367 733 c 4
 -367 719.679 -372.939 706.937 -380.298 696.263 c 5
EndSplineSet
Fore
SplineSet
-380 696 m 1
 -373 707 -367 721 -367 734 c 0
 -367 755 -376 762 -397 762 c 0
 -417 762 -426 753 -426 735 c 0
 -426 719 -411 705 -380 696 c 1
-68 798 m 0
 -68 752 -106 629 -292 629 c 0
 -415 629 -488 668 -488 733 c 0
 -488 791 -441 815 -397 815 c 0
 -346 815 -308 794 -308 739 c 0
 -308 720 -313 701 -320 688 c 1
 -311 688 -302 687 -292 687 c 0
 -204 687 -168 714 -141 769 c 0
 -125 802 -128 822 -102 822 c 0
 -79 822 -68 811 -68 798 c 0
EndSplineSet
EndChar

StartChar: uni0EB2
Encoding: 127 3762 30
Width: 432
GlyphClass: 2
Flags: W
HStem: 0 21G<333.5 360.5> 362 53<116.321 178.029> 503 56<222 283.796>
VStem: 50 62<418.011 490.701> 181 60<417.679 493.719> 307 75<0.599731 479.702>
LayerCount: 2
Fore
SplineSet
154 499 m 1
 122 491 112 473 112 455 c 0
 112 432 126 415 147 415 c 0
 171 415 181 435 181 451 c 0
 181 470 164 489 154 499 c 1
307 32 m 2
 307 415 l 2
 307 463 290 503 222 503 c 1
 232 490 241 472 241 449 c 0
 241 394 198 362 149 362 c 0
 94 362 50 392 50 455 c 0
 50 517 112 559 210 559 c 0
 312 559 382 504 382 410 c 2
 382 32 l 2
 382 3 375 0 346 0 c 0
 321 0 307 0 307 32 c 2
EndSplineSet
EndChar

StartChar: uni0EB4
Encoding: 129 3764 32
Width: 0
GlyphClass: 4
Flags: W
HStem: 640 59<-438.653 -360.541 -238.367 -159.347> 796 55<-425.191 -172.809>
VStem: -512 67<706.392 775.633> -153 67<706.392 775.633>
AnchorPoint: "tone" -300 880 basemark 0
AnchorPoint: "udia" -300 600 mark 0
LayerCount: 2
Fore
SplineSet
-299 796 m 0
 -366 796 -445 789 -445 743 c 0
 -445 702 -406 699 -377 699 c 0
 -365 699 -360 684 -360 669 c 0
 -360 654 -366 640 -377 640 c 0
 -452 640 -512 672 -512 742 c 0
 -512 831 -401 851 -299 851 c 0
 -197 851 -86 831 -86 742 c 0
 -86 672 -146 640 -221 640 c 0
 -232 640 -239 654 -239 669 c 0
 -239 684 -233 699 -221 699 c 0
 -192 699 -153 702 -153 743 c 0
 -153 789 -232 796 -299 796 c 0
EndSplineSet
EndChar

StartChar: uni0EB5
Encoding: 130 3765 33
Width: 0
GlyphClass: 4
Flags: W
HStem: 640 59<-438.653 -360.541 -238.367 -158.796 -108 -40.6328> 796 55<-425.191 -172.809>
VStem: -512 67<706.392 775.633> -153 67<706.273 775.633>
AnchorPoint: "tone" -300 880 basemark 0
AnchorPoint: "udia" -300 600 mark 0
LayerCount: 2
Fore
SplineSet
-58 640 m 2
 -221 640 l 2
 -232 640 -239 654 -239 669 c 0
 -239 684 -233 699 -221 699 c 0
 -192 699 -153 702 -153 743 c 0
 -153 789 -232 796 -299 796 c 0
 -366 796 -445 789 -445 743 c 0
 -445 702 -406 699 -377 699 c 0
 -365 699 -360 684 -360 669 c 0
 -360 654 -366 640 -377 640 c 0
 -452 640 -512 672 -512 742 c 0
 -512 831 -401 851 -299 851 c 0
 -197 851 -86 831 -86 742 c 0
 -86 718 -98 704 -108 699 c 1
 -58 699 l 2
 -46 699 -40 684 -40 669 c 0
 -40 654 -47 640 -58 640 c 2
EndSplineSet
EndChar

StartChar: uni0EB6
Encoding: 131 3766 34
Width: 0
GlyphClass: 4
Flags: W
HStem: 640 59<-438.653 -360.541 -238.367 -159.347> 688 75<-340.883 -259.117> 796 55<-425.191 -172.809>
VStem: -512 67<706.392 775.633> -346 92<694.539 757.146> -153 67<706.392 775.633>
AnchorPoint: "tone" -300 880 basemark 0
AnchorPoint: "udia" -300 600 mark 0
LayerCount: 2
Fore
SplineSet
-299 796 m 0xbc
 -366 796 -445 789 -445 743 c 0
 -445 702 -406 699 -377 699 c 0
 -365 699 -360 684 -360 669 c 0
 -360 654 -366 640 -377 640 c 0
 -452 640 -512 672 -512 742 c 0
 -512 831 -401 851 -299 851 c 0
 -197 851 -86 831 -86 742 c 0
 -86 672 -146 640 -221 640 c 0
 -232 640 -239 654 -239 669 c 0
 -239 684 -233 699 -221 699 c 0
 -192 699 -153 702 -153 743 c 0
 -153 789 -232 796 -299 796 c 0xbc
-300 763 m 0x7c
 -278 763 -254 748 -254 727 c 0
 -254 705 -277 688 -300 688 c 0
 -323 688 -346 705 -346 727 c 0
 -346 748 -322 763 -300 763 c 0x7c
EndSplineSet
EndChar

StartChar: uni0EB7
Encoding: 132 3767 35
Width: 0
GlyphClass: 4
Flags: W
HStem: 640 66<-441.545 -362.585> 640 59<-238.367 -158.67 -108 -40.6328> 688 75<-340.883 -259.117> 796 55<-425.098 -172.809>
VStem: -512 67<706.584 775.411> -346 92<694.539 757.146> -153 67<706.466 775.633>
AnchorPoint: "tone" -300 880 basemark 0
AnchorPoint: "udia" -300 600 mark 0
LayerCount: 2
Fore
SplineSet
-221 640 m 2x5e
 -232 640 -239 654 -239 669 c 0
 -239 684 -233 699 -221 699 c 0x5e
 -191 699 -153 703 -153 743 c 0
 -153 789 -232 796 -299 796 c 0
 -365 796 -445 788 -445 743 c 0
 -445 722 -435 712 -422 706 c 0
 -398 695 -360 712 -360 669 c 0
 -360 654 -366 640 -377 640 c 0x9e
 -452 640 -512 672 -512 742 c 0
 -512 831 -401 851 -299 851 c 0
 -197 851 -86 831 -86 742 c 0
 -86 718 -98 704 -108 699 c 1
 -58 699 l 2
 -46 699 -40 684 -40 669 c 0
 -40 654 -47 640 -58 640 c 2
 -221 640 l 2x5e
-300 763 m 0x3e
 -278 763 -254 748 -254 727 c 0
 -254 705 -277 688 -300 688 c 0
 -323 688 -346 705 -346 727 c 0
 -346 748 -322 763 -300 763 c 0x3e
EndSplineSet
EndChar

StartChar: uni0EB8
Encoding: 133 3768 36
Width: 0
GlyphClass: 4
Flags: W
HStem: -245 57<-187.243 -168> -128 61<-187.719 -132.804>
VStem: -251 62<-186.655 -129.296> -131 69<-185.533 -130.739>
AnchorPoint: "lstack" -160 0 mark 0
AnchorPoint: "ldia" -160 0 mark 0
LayerCount: 2
Fore
SplineSet
-136 -186 m 1
 -133 -176 -131 -168 -131 -162 c 0
 -131 -138 -148 -128 -159 -128 c 0
 -178 -128 -189 -137 -189 -158 c 0
 -189 -178 -179 -188 -159 -188 c 0
 -152 -188 -144 -187 -136 -186 c 1
-168 -245 m 1
 -204 -245 -251 -218 -251 -158 c 0
 -251 -105 -218 -67 -159 -67 c 0
 -113 -67 -62 -96 -62 -157 c 0
 -62 -162 -63 -167 -63 -171 c 0
 -63 -240 -115 -298 -173 -350 c 0
 -179.277 -355.493 -184.785 -357.907 -190.066 -357.907 c 0
 -198.247 -357.907 -205.885 -352.115 -215 -343 c 0
 -223.561 -335.01 -228.213 -328.649 -228.213 -322.057 c 0
 -228.213 -317.099 -225.581 -312.01 -220 -306 c 0
 -198 -284 -181 -264 -168 -245 c 1
EndSplineSet
EndChar

StartChar: uni0EB9
Encoding: 134 3769 37
Width: 0
GlyphClass: 4
Flags: W
HStem: -332 48<-211.882 -142.35> -173 45<-287.363 -261.212> -92 45<-287.249 -252.748>
VStem: -340 52<-127.705 -92.4498> -273 60<-282.13 -172.468> -252 55<-124.673 -92.423> -138 63<-279.696 -47.1592>
AnchorPoint: "lstack" -240 10 mark 0
AnchorPoint: "ldia" -160 -1 mark 0
LayerCount: 2
Fore
SplineSet
-252 -125 m 1xf6
 -251 -118 -252 -113 -252 -111 c 0
 -252 -98 -261 -92 -270 -92 c 0
 -280 -92 -288 -99 -288 -111 c 0
 -288 -122 -281 -128 -270 -128 c 0
 -264 -128 -257 -127 -252 -125 c 1xf6
-197 -110 m 0
 -197 -156 -213 -224 -213 -253 c 0
 -213 -278 -198 -284 -176 -284 c 0
 -139 -284 -138 -264 -138 -208 c 2
 -138 -66 l 2
 -138 -47 -122 -47 -107 -47 c 4
 -89 -47 -75 -47 -75 -66 c 2
 -75 -198 l 2
 -75 -319 -110 -332 -183 -332 c 0
 -244 -332 -273 -299 -273 -254 c 0
 -273 -243 -267 -207 -261 -173 c 1
 -265 -174 -269 -173 -273 -173 c 0xfa
 -313 -173 -340 -148 -340 -111 c 0
 -340 -74 -317 -47 -267 -47 c 0
 -216 -47 -197 -82 -197 -110 c 0
EndSplineSet
EndChar

StartChar: uni0EBB
Encoding: 135 3771 38
Width: 0
GlyphClass: 4
Flags: W
HStem: 631 53<-424.72 -367.584> 759 58<-320 -191.568>
VStem: -488 62<684.834 739.043> -367 59<684.881 749.424> -133 65<625.494 700.635>
AnchorPoint: "tone" -295 880 basemark 0
AnchorPoint: "udia" -300 600 mark 0
LayerCount: 2
Fore
SplineSet
-380 750 m 1
 -411 741 -426 727 -426 711 c 0
 -426 693 -417 684 -397 684 c 0
 -376 684 -367 692 -367 713 c 0
 -367 726 -373 739 -380 750 c 1
-68 648 m 0
 -68 635 -80 624 -103 624 c 0
 -124 624 -128 642 -133 658 c 0
 -156 719 -188 759 -292 759 c 0
 -302 759 -311 759 -320 759 c 1
 -313 746 -308 730 -308 711 c 0
 -308 656 -346 631 -397 631 c 0
 -441 631 -488 654 -488 712 c 0
 -488 777 -417 817 -294 817 c 0
 -106 817 -68 694 -68 648 c 0
EndSplineSet
EndChar

StartChar: uni0EBC
Encoding: 136 3772 39
Width: 0
GlyphClass: 4
Flags: W
HStem: -242 69<-232.686 -173.209> -240 51<-468.218 -409.641> -130 73<-465.685 -411.548>
VStem: -531 62<-187.992 -134.514> -409 59<-187.569 -156.188> -156 75<-162.114 -47.9733>
AnchorPoint: "lstack" -250 -170 basemark 0
AnchorPoint: "cbelow" -160 0 mark 0
LayerCount: 2
Fore
SplineSet
-418 -130 m 1x7c
 -442 -130 -469 -135 -469 -161 c 0
 -469 -179 -459 -189 -439 -189 c 0
 -418 -189 -409 -180 -409 -159 c 0
 -409 -149 -413 -139 -418 -130 c 1x7c
-416 -57 m 0
 -321 -57 -227 -173 -195 -173 c 0
 -167 -173 -165 -121 -156 -93 c 1
 -148 -61 -147 -46 -123 -46 c 0
 -100 -46 -81 -52 -81 -65 c 0
 -81 -134 -100 -242 -196 -242 c 0xbc
 -267 -242 -307 -189 -350 -156 c 1
 -350 -158 -350 -160 -350 -162 c 0
 -350 -217 -388 -240 -439 -240 c 0
 -483 -240 -531 -219 -531 -161 c 0
 -531 -96 -485 -57 -416 -57 c 0
EndSplineSet
EndChar

StartChar: uni0EBD
Encoding: 137 3773 40
Width: 469
GlyphClass: 2
Flags: W
HStem: -207 62<188 298.633> -60 54<80.0674 148.673> 451 66<251.695 375> 511 59<88.8642 199.273>
VStem: 20 68<461.68 510.899> 22 56<-127.385 -62.4553> 150 62<-137.609 -62.2164> 327 74<-117.182 307.154> 347 72<518.676 582.247>
DStem2: 298 389 91 397 0.934818 -0.355126<-229.488 53.6869> 168 563 161 502 0.958862 -0.283874<-40.1711 172.134>
LayerCount: 2
Fore
SplineSet
128 -138 m 1xc6
 137 -128 150 -110 150 -90 c 0
 150 -67 135 -60 114 -60 c 0
 88 -60 78 -75 78 -93 c 0
 78 -110 87 -128 128 -138 c 1xc6
419 552 m 0xea80
 419 472 395 451 355 451 c 0xea80
 314 451 286 462 260 470 c 2
 161 502 l 2
 149 506 125 511 110 511 c 0
 95 511 88 504 88 483 c 0xda80
 88 471 99 465 119 457 c 2
 298 389 l 2
 380 358 401 304 401 216 c 2
 401 -31 l 2
 401 -125 374 -207 209 -207 c 0
 67 -207 22 -159 22 -97 c 0xd7
 22 -34 63 -6 115 -6 c 0
 174 -6 212 -41 212 -88 c 0
 212 -112 200 -132 188 -145 c 1
 205 -145 l 2
 305 -145 327 -115 327 -38 c 2
 327 234 l 2
 327 280 314 314 270 331 c 2
 91 397 l 2
 52 412 20 431 20 489 c 0
 20 545 63 570 100 570 c 0xdb
 128 570 165 564 168 563 c 2
 320 518 l 2
 322 517 332 517 334 517 c 0
 347 517 347 525 347 552 c 0
 347 582 361 583 386 583 c 0
 412 583 419 578 419 552 c 0xea80
EndSplineSet
EndChar

StartChar: uni0EC0
Encoding: 138 3776 41
Width: 322
GlyphClass: 2
Flags: W
HStem: 0 56<138.439 201.449> 124 53<134.985 201.467> 490 69<142.96 253.965>
VStem: 60 74<60.688 121.996 170 485.769> 204 59<57.7571 120.49>
LayerCount: 2
Back
SplineSet
70 494 m 1
 25 526 -31 559 -102 559 c 0
 -236 559 -287 495 -287 339 c 2
 -287 32 l 2
 -287 3 -280 0 -251 0 c 0
 -226 0 -212 0 -212 32 c 2
 -212 388 l 2
 -212 445 -194 503 -104 503 c 0
 -40 503 11 464 60 430 c 1
 60 181 l 2
 60 95 61 0 175 0 c 0
 221 0 263 34 263 85 c 0
 263 131 232 177 175 177 c 0
 162 177 147 174 134 170 c 5
 134 388 l 5
 146 384 159 382 172 382 c 0
 221 382 263 415 263 474 c 0
 263 525 221 559 174 559 c 0
 128 559 88 539 70 494 c 1
135 448 m 1
 135 463 l 2
 135 484 144 506 170 506 c 0
 192 506 204 488 204 471 c 0
 204 453 192 435 169 435 c 0
 159 435 148 440 135 448 c 1
135 116 m 1
 146 120 159 124 170 124 c 0
 182 124 204 115 204 88 c 0
 204 65 186 56 171 56 c 0
 144 56 135 76 135 87 c 2
 135 116 l 1
EndSplineSet
Fore
SplineSet
135 116 m 1
 134 108 135 105 135 93 c 0
 135 75 143 56 171 56 c 0
 193 56 204 71 204 89 c 0
 204 104 194 124 168 124 c 0
 160 124 142 118 135 116 c 1
246 490 m 2
 240 490 l 1
 220 490 204 494 191 494 c 0
 143 494 134 473 134 390 c 2
 134 170 l 1
 134 170 152 177 178 177 c 0
 220 177 263 142 263 86 c 0
 263 32 220 0 168 0 c 0
 95 0 60 51 60 145 c 2
 60 358 l 2
 60 514 89 559 182 559 c 0
 206 559 233 555 255 545 c 0
 263 542 267 535 267 525 c 0
 267 507 260 490 246 490 c 2
EndSplineSet
EndChar

StartChar: uni0EC2
Encoding: 140 3778 43
Width: 414
GlyphClass: 2
Flags: W
HStem: 0 50<244.896 309.266> 116 55<245.137 308.993> 657 58<274.919 334> 809 61<67.0484 134.587>
VStem: 0 65<746.121 804.66> 122 75<100.447 527.597> 311 58<52.1858 114.204>
LayerCount: 2
Fore
SplineSet
250 51 m 1
 256 50 261 50 268 50 c 0
 301 50 311 60 311 84 c 0
 311 102 303 116 277 116 c 0
 255 116 244 106 244 84 c 0
 244 71 247 59 250 51 c 1
101 809 m 0
 91 809 65 797 65 779 c 0
 65 777 65 775 66 773 c 0
 71 756 108 726 129 705 c 0
 178 656 229 607 283 560 c 1
 206 540 197 503 197 468 c 2
 197 135 l 2
 197 121 199 110 201 99 c 1
 203 120 211 140 227 153 c 0
 242 165 261 171 279 171 c 0
 324 171 369 137 369 84 c 0
 369 25 338 0 257 0 c 0
 169 0 122 49 122 140 c 1
 122 422 l 2
 122 479 127 537 160 568 c 1
 75 663 l 2
 49 691 15 720 4 754 c 0
 2 762 0 770 0 779 c 0
 0 838 49 870 91 870 c 0
 125 870 145 859 165 840 c 0
 244 761 289 715 324 715 c 0
 327 715 331 715 334 716 c 1
 334 661 l 1
 323 658 313 657 304 657 c 0
 294 657 285 658 276 662 c 0
 256 672 224 699 172 750 c 2
 133 789 l 1
 123 803 112 809 101 809 c 0
EndSplineSet
EndChar

StartChar: uni0EC3
Encoding: 141 3779 44
Width: 447
GlyphClass: 2
Flags: W
HStem: 0 51<264.413 328.438> 116 54<264.219 328.006> 576 57<82.0594 191.91> 754 67<91.2028 312.312>
VStem: 0 69<645.828 731.095> 142 75<100.38 458.165> 221 42<98 113.669> 326 76<632.257 738.625> 330 59<53.6783 113.66>
LayerCount: 2
Fore
SplineSet
269 52 m 1xfe80
 275 51 280 51 287 51 c 0
 320 51 330 60 330 84 c 0
 330 102 322 116 296 116 c 0
 274 116 263 107 263 85 c 0
 263 72 266 60 269 52 c 1xfe80
233 694 m 0
 245 694 272 672 272 660 c 0
 272 654 269 647 262 638 c 0
 226 589 188 576 126 576 c 0
 58 576 0 617 0 688 c 0
 0 771 72 821 196 821 c 0
 337 821 402 780 402 694 c 0xff
 402 522 217 558 217 370 c 2
 217 135 l 2
 217 121 218 109 221 98 c 1
 221 149 263 170 298 170 c 0
 348 170 389 140 389 84 c 0xfe80
 389 25 357 0 276 0 c 0
 192 0 142 47 142 141 c 2
 142 375 l 2
 142 585 326 567 326 695 c 0xff
 326 754 272 754 200 754 c 0
 133 754 69 747 69 687 c 1
 69 687 73 633 126 633 c 0
 159 633 184 637 212 678 c 0
 219 689 226 694 233 694 c 0
EndSplineSet
EndChar

StartChar: uni0EC4
Encoding: 142 3780 45
Width: 381
GlyphClass: 2
Flags: W
HStem: 0 51<191.42 255.36> 116 54<190.89 254.953> 563 65<91 220.855> 595 62<183.424 286.581>
VStem: 50 75<628.618 798.817> 70 74<100.38 415.993> 148 42<98 113.152> 257 58<53.6783 113.66> 288 63<542.481 594.227>
LayerCount: 2
Fore
SplineSet
196 52 m 1xc3
 202 51 207 51 214 51 c 0
 247 51 257 60 257 84 c 0
 257 102 249 116 223 116 c 0
 201 116 190 107 190 85 c 0
 190 72 193 60 196 52 c 1xc3
144 346 m 2xd680
 144 135 l 2
 144 121 145 109 148 98 c 1
 148 140 181 170 225 170 c 0
 275 170 315 140 315 84 c 0xd7
 315 25 284 0 203 0 c 0
 119 0 70 47 70 141 c 2
 70 328 l 2
 70 415 86 462 173 500 c 0
 215 518 288 544 288 563 c 0xe680
 288 584 281 595 266 595 c 0xd680
 251 595 206 580 186 574 c 0
 160 566 148 563 121 563 c 0
 61 563 50 596 50 731 c 2
 50 769 l 2
 50 793 62 800 86 800 c 0
 111 800 125 798 125 769 c 2
 125 652 l 2
 125 636 125 628 135 628 c 0xea80
 156 628 183 637 205 643 c 0
 208 644 251 657 279 657 c 0
 316 657 351 625 351 569 c 0
 351 493 293 483 228 454 c 0
 162 425 144 406 144 346 c 2xd680
EndSplineSet
EndChar

StartChar: uni0EC6
Encoding: 143 3782 46
Width: 611
GlyphClass: 2
Flags: W
HStem: -206 67<219.686 432.177> 288 55<123.152 200.499> 412 53<120.593 200.057> 443 21G<286 333> 503 56<130.743 241.539 372.446 462.864>
VStem: 45 71<351.445 407.514> 202 62<346.111 410.133> 487 64<-83.7965 475.576>
LayerCount: 2
Fore
SplineSet
116 397 m 1xef
 116 366 129 343 163 343 c 0
 190 343 202 356 202 376 c 0
 202 394 196 412 169 412 c 0
 147 412 132 407 116 397 c 1xef
163 288 m 0
 77 288 45 340 45 421 c 0
 45 485 91 559 167 559 c 0
 260 559 311 500 311 500 c 1
 311 500 352 559 422 559 c 0
 498 559 551 535 551 335 c 2
 551 70 l 2
 551 -176 438 -206 328 -206 c 0
 206 -206 164 -169 95 -108 c 0
 87 -101 84 -95 84 -89 c 0
 84 -76 112 -54 127 -54 c 0
 135 -54 140 -61 150 -69 c 0
 203 -113 241 -139 321 -139 c 0
 467 -139 487 -78 487 25 c 2
 487 337 l 2
 487 487 456 503 421 503 c 0
 370 503 355 443 311 443 c 0xdf
 261 443 255 503 164 503 c 0
 141 503 127 481 120 456 c 1
 135 462 153 465 175 465 c 0
 225 465 264 436 264 373 c 0
 264 329 232 288 163 288 c 0
EndSplineSet
EndChar

StartChar: uni0EC8
Encoding: 144 3784 47
Width: 0
GlyphClass: 4
Flags: W
HStem: 611 213<-125 -67>
VStem: -125 58<611.262 823.684>
AnchorPoint: "tone" -100 880 basemark 0
AnchorPoint: "tone" -100 600 mark 0
AnchorPoint: "udia" -100 600 mark 0
LayerCount: 2
Fore
SplineSet
-67 802 m 2
 -67 632 l 2
 -67 615 -77 611 -96 611 c 0
 -115 611 -125 615 -125 632 c 2
 -125 802 l 2
 -125 819 -115 824 -96 824 c 0
 -77 824 -67 819 -67 802 c 2
EndSplineSet
EndChar

StartChar: uni0EC9
Encoding: 145 3785 48
Width: 0
GlyphClass: 4
Flags: W
HStem: 637 48<-373 -238.165> 732 39<-449.497 -386.453> 825 41<-449.877 -385.717>
VStem: -498 47<772.112 823.697> -382 56<772.846 823.001> -207 68<715.448 850.643>
AnchorPoint: "tone" -310 920 basemark 0
AnchorPoint: "tone" -310 610 mark 0
AnchorPoint: "udia" -300 620 mark 0
LayerCount: 2
Fore
SplineSet
-382 781 m 1
 -382 817 -394 825 -421 825 c 0
 -443 825 -451 813 -451 798 c 0
 -451 783 -442 771 -418 771 c 0
 -405 771 -392 776 -382 781 c 1
-207 825 m 0
 -207 844 -193 852 -172 852 c 0
 -151 852 -139 844 -139 825 c 0
 -139 694 -164 637 -337 637 c 2
 -482 637 l 2
 -508 637 -511 643 -511 667 c 0
 -511 698 -408 675 -386 741 c 1
 -397 736 -411 732 -426 732 c 0
 -470 732 -498 755 -498 797 c 0
 -498 837 -473 866 -421 866 c 0
 -364 866 -326 829 -326 772 c 0
 -326 723 -371 685 -373 685 c 2
 -350 685 l 2
 -211 685 -207 721 -207 825 c 0
EndSplineSet
EndChar

StartChar: uni0ECA
Encoding: 146 3786 49
Width: 0
GlyphClass: 4
Flags: W
HStem: 729 66<-359.466 -297.642 -224.232 -162.599>
VStem: -424 63<663.093 728.213> -161 128<687.5 796> -77 44<752.237 808.889>
AnchorPoint: "tone" -230 860 basemark 0
AnchorPoint: "tone" -230 570 mark 0
AnchorPoint: "udia" -300 580 mark 0
LayerCount: 2
Fore
SplineSet
-261 741 m 1xe0
 -261 741 -237 795 -180 795 c 0
 -133 795 -106 775 -106 729 c 1
 -94 762 -85 799 -77 805 c 0xd0
 -73 808 -66 809 -58 809 c 0
 -42 809 -33 803 -33 789 c 0
 -33 705 -145 592 -198 592 c 0
 -214 592 -226 606 -226 619 c 0
 -226 625 -223 632 -218 636 c 0
 -184 664 -161 675 -161 700 c 0
 -161 715 -171 729 -188 729 c 0
 -206 729 -220 717 -229 700 c 0
 -240 680 -255 679 -261 679 c 0
 -267 679 -282 680 -293 700 c 0
 -302 717 -316 729 -334 729 c 0
 -351 729 -361 715 -361 700 c 0
 -361 671 -317 647 -302 634 c 0
 -298 631 -297 626 -297 620 c 0
 -297 607 -305 592 -324 592 c 0
 -375 592 -424 661 -424 709 c 0
 -424 762 -394 795 -336 795 c 0
 -273 795 -261 741 -261 741 c 1xe0
EndSplineSet
EndChar

StartChar: uni0ECB
Encoding: 147 3787 50
Width: 0
GlyphClass: 4
Flags: W
HStem: 688 58<-260.483 -184 -125 -48.2623>
VStem: -184 59<611.4 688 746 823.521>
AnchorPoint: "tone" -160 870 basemark 0
AnchorPoint: "tone" -160 590 mark 0
AnchorPoint: "udia" -200 600 mark 0
LayerCount: 2
Fore
SplineSet
-125 688 m 1
 -125 632 l 2
 -125 615 -135 611 -154 611 c 0
 -172 611 -184 615 -184 632 c 2
 -184 688 l 1
 -239 688 l 2
 -254 688 -261 700 -261 717 c 0
 -261 730 -257 746 -239 746 c 2
 -184 746 l 1
 -184 802 l 2
 -184 819 -172 824 -154 824 c 0
 -140 824 -125 821 -125 802 c 2
 -125 746 l 1
 -69 746 l 2
 -52 746 -48 736 -48 717 c 0
 -48 699 -52 688 -69 688 c 2
 -125 688 l 1
EndSplineSet
EndChar

StartChar: uni0ECC
Encoding: 148 3788 51
Width: 0
GlyphClass: 4
Flags: W
HStem: 625 45<-249.256 -196.267> 719 55<-148 -112.329> 726 48<-249.066 -195.629>
VStem: -299 49<671.044 725.094> -195 47<672.25 719>
AnchorPoint: "tone" -200 880 basemark 0
AnchorPoint: "tone" -200 600 mark 0
AnchorPoint: "udia" -220 600 mark 0
LayerCount: 2
Fore
SplineSet
-195 698 m 0xb8
 -195 715 -209 726 -223 726 c 0
 -237 726 -250 715 -250 698 c 0
 -250 681 -237 670 -223 670 c 0
 -209 670 -195 681 -195 698 c 0xb8
-148 719 m 1xd8
 -148 705 l 1
 -148 657 -175 625 -224 625 c 0
 -252 625 -299 645 -299 698 c 0
 -299 751 -266 774 -222 774 c 1
 -174 774 l 1xb8
 -130 774 -122 786 -102 806 c 0
 -97 811 -92 813 -87 813 c 0
 -74 813 -54 792 -54 780 c 0
 -54 775 -56 771 -60 766 c 0
 -86 736 -105 719 -148 719 c 1xd8
EndSplineSet
EndChar

StartChar: uni0ECD
Encoding: 149 3789 52
Width: 0
GlyphClass: 4
Flags: W
HStem: 633 53<-299.785 -227.034> 765 53<-299.377 -228.119>
VStem: -358 54<690.703 759.332> -223 55<690.489 760.397>
AnchorPoint: "tone" -270 880 basemark 0
AnchorPoint: "cabove" -260 620 mark 0
LayerCount: 2
Fore
SplineSet
-358 726 m 0
 -358 779 -315 818 -262 818 c 0
 -208 818 -168 779 -168 725 c 0
 -168 672 -209 633 -262 633 c 0
 -315 633 -358 673 -358 726 c 0
-263 765 m 0
 -285 765 -304 747 -304 725 c 0
 -304 703 -287 686 -264 686 c 0
 -241 686 -223 703 -223 725 c 0
 -223 747 -241 765 -263 765 c 0
EndSplineSet
EndChar

StartChar: uni0ED0
Encoding: 150 3792 53
Width: 522
GlyphClass: 2
Flags: W
HStem: 0 56<181.663 340.337> 503 56<181.663 340.337>
VStem: 50 75<124.772 433.583> 397 75<124.772 433.583>
LayerCount: 2
Fore
SplineSet
397 279 m 0
 397 402 390 503 261 503 c 0
 132 503 125 402 125 279 c 0
 125 156 132 56 261 56 c 0
 390 56 397 156 397 279 c 0
472 279 m 0
 472 76 395 0 261 0 c 0
 127 0 50 76 50 279 c 0
 50 482 127 559 261 559 c 0
 395 559 472 482 472 279 c 0
EndSplineSet
EndChar

StartChar: uni0ED1
Encoding: 151 3793 54
Width: 567
GlyphClass: 2
Flags: W
HStem: -7 21G<236.5 245.5> 192 60<159.827 223> 364 52<230.828 303.547> 503 54<191.505 367.095>
VStem: 50 73<288.207 437.373> 169 60<300.628 362.71> 309 67<304.237 359.193> 449 78<207.248 409.947>
LayerCount: 2
Fore
SplineSet
309 312 m 1
 309 353 289 364 265 364 c 0
 243 364 229 358 229 331 c 0
 229 308 240 299 265 299 c 0
 283 299 297 305 309 312 c 1
50 369 m 0
 50 490 167 557 278 557 c 0
 423 557 527 455 527 297 c 0
 527 149 411 56 262 -3 c 0
 255 -6 248 -7 243 -7 c 0
 230 -7 210 11 210 42 c 0
 210 52 217 60 236 68 c 0
 336 110 449 166 449 296 c 0
 449 377 429 503 276 503 c 0
 189 503 123 445 123 367 c 0
 123 351 125 334 130 317 c 0
 140 285 165 252 223 252 c 1
 182 267 169 304 169 331 c 0
 169 379 192 416 265 416 c 0
 341 416 376 367 376 308 c 0
 376 227 293 192 224 192 c 0
 127 192 50 263 50 369 c 0
EndSplineSet
EndChar

StartChar: uni0ED2
Encoding: 152 3794 55
Width: 608
GlyphClass: 2
Flags: W
HStem: 0 56<218.11 421.577> 87 53<400.543 448.707> 205 51<400.899 468.636>
VStem: 50 81<154.234 366.248> 341 58<141.668 203.64> 474 63<143.896 201.014>
LayerCount: 2
Fore
SplineSet
474 153 m 1
 474 193 456 205 434 205 c 0
 411 205 399 198 399 174 c 0
 399 153 407 140 436 140 c 0
 447 140 461 146 474 153 c 1
547 719 m 0
 566 719 581 699 581 681 c 0
 581 672 578 665 571 658 c 0
 408 497 131 502 131 271 c 0
 131 136 196 56 295 56 c 0
 361 56 418 68 449 93 c 1
 440 89 432 87 425 87 c 0
 369 87 341 120 341 170 c 0
 341 222 366 256 433 256 c 0
 503 256 537 221 537 149 c 0
 537 39 417 0 294 0 c 0
 119 0 50 130 50 268 c 0
 50 543 329 544 520 705 c 0
 529 713 537 719 547 719 c 0
EndSplineSet
EndChar

StartChar: uni0ED3
Encoding: 153 3795 56
Width: 721
GlyphClass: 2
Flags: W
HStem: 1 57<104.237 167.313 344.896 536.248> 126 54<103.389 171.249> 645 63<501.919 625> 708 63<338.665 440.917>
VStem: 40 62<60.0619 123.426> 175 46<84 122.304> 225 75<105.902 557.849> 272 66<655.302 707.727> 577 74<102.556 499.506>
DStem2: 369 650 386 574 0.934598 -0.355705<-38.3703 242.529>
LayerCount: 2
Fore
SplineSet
163 59 m 1xcc80
 171 68 175 79 175 89 c 0
 175 109 160 126 137 126 c 0
 111 126 102 111 102 93 c 0
 102 73 113 58 137 58 c 0
 147 58 155 58 163 59 c 1xcc80
272 56 m 1xdd80
 245 20 197 1 137 1 c 0
 67 1 40 47 40 91 c 0
 40 154 77 180 137 180 c 0
 181 180 221 156 221 112 c 0
 221 106 220 100 219 93 c 1
 224 105 225 119 225 136 c 2
 225 524 l 2
 225 552 234 559 263 559 c 0
 288 559 300 556 300 524 c 2
 300 210 l 2xde80
 300 84 352 56 442 56 c 0
 533 56 577 83 577 209 c 2
 577 428 l 2
 577 474 564 507 520 523 c 2
 386 574 l 2
 330 596 272 604 272 683 c 0
 272 739 307 771 344 771 c 0xdd80
 372 771 415 758 418 757 c 0
 464 743 531 708 577 708 c 0
 612 708 573 776 636 776 c 0
 662 776 671 772 671 746 c 0
 671 666 645 645 605 645 c 0xed80
 564 645 536 656 510 664 c 0
 463 679 403 708 360 708 c 0
 345 708 338 698 338 677 c 0
 338 665 349 658 369 650 c 0
 393 641 414 632 434 624 c 0
 636 543 651 539 651 370 c 2
 651 208 l 2
 651 22 545 1 440 1 c 0
 377 1 314 10 272 56 c 1xdd80
EndSplineSet
EndChar

StartChar: uni0ED4
Encoding: 154 3796 57
Width: 623
GlyphClass: 2
Flags: W
HStem: 0 53<166.238 303.299 452.625 513.862> 124 53<448.562 514.197> 216 53<448.563 513.935> 340 53<451.853 513.919>
VStem: 60 75<82.2006 389.303> 373 75<104.584 122.456 169 222 270.712 335.725> 517 59<55.0933 120.656 271.358 336.852>
DStem2: 179 497 221 442 0.932628 0.360838<-51.8336 338.395>
LayerCount: 2
Fore
SplineSet
448 277 m 1
 460 273 473 269 484 269 c 0
 496 269 517 278 517 305 c 0
 517 328 499 340 484 340 c 0
 457 340 448 317 448 306 c 2
 448 277 l 1
484 53 m 0
 504 53 517 68 517 88 c 0
 517 106 506 124 480 124 c 0
 470 124 459 119 448 111 c 1
 448 83 450 53 484 53 c 0
373 261 m 2
 373 336 406 393 488 393 c 0
 534 393 576 358 576 307 c 0
 576 261 543 216 486 216 c 0
 473 216 460 218 448 222 c 1
 448 169 l 1
 461 174 474 177 488 177 c 0
 548 177 576 129 576 90 c 0
 576 46 545 0 484 0 c 0
 433 0 401 20 385 59 c 1
 346 29 297 0 230 0 c 0
 105 0 60 70 60 168 c 0
 60 376 63 453 179 497 c 0
 250 524 331 553 395 581 c 1
 474 617 494 646 545 697 c 0
 553 705 560 708 567 708 c 0
 584 708 598 690 598 672 c 0
 598 665 596 658 590 652 c 0
 518 583 507 553 389 507 c 2
 221 442 l 2
 136 409 135 352 135 170 c 0
 135 108 146 56 229 56 c 0
 288 56 332 89 373 121 c 1
 373 261 l 2
EndSplineSet
EndChar

StartChar: uni0ED5
Encoding: 155 3797 58
Width: 626
GlyphClass: 2
Flags: W
HStem: 0 53<165.051 306.093 452.625 513.862> 124 53<448.562 514.197> 216 53<448.563 513.935> 340 53<451.853 513.919> 601 52<192.269 258.475>
VStem: 60 76<83.208 386.366> 127 62<526.82 597.384> 260 62<550.622 597.673> 373 75<105.291 122.456 169 222 270.712 335.725> 517 59<55.0933 120.656 271.358 336.852>
LayerCount: 2
Fore
SplineSet
448 277 m 1xf9c0
 460 273 473 269 484 269 c 0
 496 269 517 278 517 305 c 0
 517 328 499 340 484 340 c 0
 457 340 448 317 448 306 c 2
 448 277 l 1xf9c0
484 53 m 0
 504 53 517 68 517 88 c 0
 517 106 506 124 480 124 c 0
 470 124 459 119 448 111 c 1
 448 83 450 53 484 53 c 0
244 523 m 1
 253 534 260 550 260 573 c 0
 260 585 243 601 226 601 c 0
 203 601 189 583 189 567 c 0xfbc0
 189 545 205 521 231 521 c 0
 235 521 239 522 244 523 c 1
229 56 m 0
 294 56 334 91 373 121 c 1
 373 261 l 2
 373 336 406 393 488 393 c 0
 534 393 576 358 576 307 c 0
 576 261 543 216 486 216 c 0
 473 216 460 218 448 222 c 1
 448 169 l 1
 461 174 474 177 488 177 c 0
 548 177 576 129 576 90 c 0
 576 46 545 0 484 0 c 0
 433 0 401 20 385 59 c 1
 346 29 297 0 230 0 c 0
 68 0 60 104 60 232 c 0xfdc0
 60 388 74 451 172 493 c 1
 145 508 127 531 127 568 c 0xfbc0
 127 619 172 653 223 653 c 0
 281 653 322 620 322 575 c 0
 322 567 320 559 318 550 c 1
 339 557 l 1
 437 593 473 625 517 669 c 1
 545 697 l 2
 552 704 560 707 567 707 c 0
 586 707 601 687 601 671 c 1
 599 654 565 627 552 614 c 0
 518 580 492 554 439 528 c 0
 389 503 322 474 271 474 c 1
 256 459 238 448 221 441 c 0
 137 406 136 351 136 169 c 0xfdc0
 136 107 147 56 229 56 c 0
EndSplineSet
EndChar

StartChar: uni0ED6
Encoding: 156 3798 59
Width: 638
GlyphClass: 2
Flags: W
HStem: 0 56<153.024 258.108 389.754 483.948> 381 54<135.54 200.289> 505 54<141.465 200.481> 645 63<435.426 566> 708 63<263.533 365.363>
VStem: 60 75<74.2676 388 436.16 499.852> 203 60<437.175 502.487 655.621 707.149> 282 75<95.1182 275.639> 502 74<72.2716 496.365> 522 74<708.93 793.997>
LayerCount: 2
Fore
SplineSet
135 442 m 1xe7
 146 438 159 435 170 435 c 0
 182 435 203 443 203 470 c 0
 203 493 186 505 171 505 c 0
 146 505 135 486 135 442 c 1xe7
576 410 m 2xef80
 576 229 l 2
 576 47 532 0 439 0 c 0
 389 0 343 19 322 93 c 1
 305 18 250 0 200 0 c 0
 101 0 60 54 60 207 c 2
 60 384 l 2
 60 468 64 559 175 559 c 0
 221 559 263 524 263 473 c 0
 263 427 235 381 173 381 c 0
 160 381 147 384 135 388 c 1
 135 193 l 2
 135 111 136 56 203 56 c 0
 278 56 282 118 282 225 c 0
 282 277 300 277 322 277 c 0
 342 277 357 277 357 225 c 0
 357 109 383 56 438 56 c 0
 484 56 502 78 502 193 c 2
 502 428 l 2
 502 523 426 536 312 576 c 0
 250 598 197 602 197 689 c 0
 197 745 232 771 269 771 c 0xef80
 297 771 340 758 343 757 c 0
 395 740 484 708 503 708 c 0
 521 708 522 716 522 731 c 2
 522 758 l 2
 522 788 536 796 561 796 c 0
 587 796 596 784 596 758 c 2
 596 731 l 2
 596 667 586 645 546 645 c 0xf740
 472 645 321 708 285 708 c 0
 270 708 263 701 263 680 c 0
 263 668 274 658 294 650 c 1
 495 583 576 560 576 410 c 2xef80
EndSplineSet
EndChar

StartChar: uni0ED7
Encoding: 157 3799 60
Width: 649
GlyphClass: 2
Flags: W
HStem: 0 56<100.635 161.958> 124 53<102.276 167.413> 382 53<101.911 167.415> 503 56<100.878 165.005 318.696 476.217>
VStem: 40 59<57.9916 121.229 438.241 501.017> 168 75<58.5449 122.288 170 389 437.17 447.07> 510 74<-83.545 467.13> 536 73<-137.923 -13.422>
LayerCount: 2
Fore
SplineSet
168 116 m 1xfc
 156 120 143 124 132 124 c 0
 120 124 99 115 99 88 c 0
 99 65 117 56 132 56 c 0
 156 56 168 72 168 116 c 1xfc
168 448 m 1
 168 463 l 2
 168 484 159 503 133 503 c 0
 111 503 99 488 99 471 c 0
 99 453 111 435 134 435 c 0
 144 435 155 440 168 448 c 1
510 50 m 2xfe
 510 389 l 2
 510 446 492 503 402 503 c 0
 339 503 289 465 242 431 c 1
 242 419 243 406 243 392 c 2
 243 130 l 2
 243 61 214 0 128 0 c 0
 82 0 40 34 40 85 c 0
 40 131 71 177 128 177 c 0
 141 177 155 174 168 170 c 1
 168 389 l 1
 156 385 144 382 131 382 c 0
 82 382 40 415 40 474 c 0
 40 525 82 559 129 559 c 0
 182 559 214 540 230 494 c 1
 274 526 330 559 401 559 c 0
 534 559 584 499 584 344 c 2
 584 100 l 2xfe
 584 -14 609 -76 609 -113 c 0
 609 -124 608 -140 566 -140 c 0
 553 -140 542 -136 536 -112 c 0xfd
 535 -109 510 -33 510 50 c 2xfe
EndSplineSet
EndChar

StartChar: uni0ED8
Encoding: 158 3800 61
Width: 695
GlyphClass: 2
Flags: W
HStem: -283 55<541.742 615.717> -277 62<200.671 303.9> -153 54<567 615.034> 0 56<142.652 205.896> 124 53<140.564 205.224> 503 56<163.951 236.487 435.201 505.605>
VStem: 65 75<60.714 122.523 170 479.41> 133 67<-212.727 -151.922> 208 60<57.8825 121.229> 480 58<-223.058 -184.048> 526 75<70 481.19> 620 51<-222.633 -157.026>
DStem2: 278 -54 301 -113 0.933225 0.359292<-112.676 233.53 345.984 421.85>
LayerCount: 2
Fore
SplineSet
546 -161 m 1xbcd0
 543 -170 538 -178 538 -189 c 0
 538 -217 558 -228 580 -228 c 0
 600 -228 620 -212 620 -189 c 1
 620 -169 601 -153 582 -153 c 1
 574 -153 l 1
 564 -156 l 2
 558 -158 552 -159 546 -161 c 1xbcd0
491 -119 m 1
 492 -115 494 -112 496 -108 c 2
 519 -30 l 1
 301 -113 l 2
 255 -131 200 -152 200 -187 c 0
 200 -200 208 -215 238 -215 c 0x7d90
 242 -215 249 -213 259 -210 c 0
 298 -197 378 -163 447 -136 c 2
 491 -119 l 1
140 116 m 1x3e90
 140 87 l 2
 140 76 149 56 176 56 c 0
 191 56 208 65 208 88 c 0
 208 115 187 124 175 124 c 0
 164 124 151 120 140 116 c 1x3e90
140 170 m 1
 153 174 167 177 180 177 c 0
 237 177 268 131 268 85 c 0
 268 34 226 0 180 0 c 0
 70 0 65 88 65 172 c 2
 65 342 l 2
 65 528 125 559 204 559 c 0
 313 559 306 461 330 377 c 1
 353 465 358 559 463 559 c 0
 475 559 486 559 497 557 c 0
 561 547 601 501 601 342 c 2
 601 70 l 1
 678 100 l 1
 695 37 l 1
 601 0 l 1x7eb0
 567 -99 l 1
 626 -99 671 -127 671 -188 c 0
 671 -243 632 -283 579 -283 c 0
 528 -283 480 -250 480 -198 c 2
 480 -184 l 1xbcd0
 421 -208 357 -243 302 -262 c 0
 275 -271 248 -277 222 -277 c 0
 169 -277 133 -236 133 -185 c 0
 133 -107 206 -82 278 -54 c 2
 526 41 l 1
 526 340 l 2x7db0
 526 425 521 478 491 496 c 0
 483 501 476 503 469 503 c 0
 445 503 428 477 418 451 c 0
 402 408 390 347 362 319 c 0
 352 309 342 304 332 304 c 0
 309 304 288 329 278 356 c 0
 258 413 249 503 208 503 c 0
 151 503 140 447 140 340 c 2
 140 170 l 1
EndSplineSet
EndChar

StartChar: uni0ED9
Encoding: 159 3801 62
Width: 700
GlyphClass: 2
Flags: W
HStem: 0 56<142.792 205.896 434.368 539.486> 124 53<140.564 205.224> 503 56<172.434 309.805>
VStem: 65 75<58.2583 122.523 170 467.755> 208 60<57.8825 121.229> 334 76<79.4646 475.868> 565 75<83.9589 557.961>
LayerCount: 2
Fore
SplineSet
140 116 m 1
 140 87 l 2
 140 76 149 56 176 56 c 0
 191 56 208 65 208 88 c 0
 208 115 187 124 175 124 c 0
 164 124 151 120 140 116 c 1
252 503 m 0
 165 503 140 472 140 349 c 2
 140 170 l 1
 153 174 167 177 180 177 c 0
 237 177 268 131 268 85 c 0
 268 34 226 0 180 0 c 0
 94 0 65 61 65 185 c 2
 65 352 l 2
 65 526 145 559 250 559 c 0
 350 559 410 529 410 312 c 2
 410 179 l 2
 410 117 417 56 487 56 c 0
 565 56 565 135 565 227 c 2
 565 524 l 2
 565 556 578 559 603 559 c 0
 632 559 640 553 640 524 c 2
 640 215 l 2
 640 62 601 0 487 0 c 0
 405 0 334 36 334 183 c 2
 334 345 l 2
 334 438 332 503 252 503 c 0
EndSplineSet
EndChar

StartChar: uni0EDC
Encoding: 160 3804 63
Width: 1036
GlyphClass: 2
Flags: W
HStem: 0 56<193.17 356.917 473.248 580.723 727.125 869.578> 379 56<107.687 153.689 330.371 401.367> 503 56<106.42 170.907 329.522 396.276 514.216 599.845>
VStem: 45 59<437.581 500.203> 76 75<96.29 261.335> 174 72<443.282 499.397> 266 62<436.454 500.646> 402 75<106.513 388> 616 75<95.125 487.137> 902 74<90 557.961>
AnchorPoint: "cbelow" 885 0 basechar 0
AnchorPoint: "ldia" 855 0 basechar 0
AnchorPoint: "udia" 600 600 basechar 0
AnchorPoint: "cabove" 690 600 basechar 0
LayerCount: 2
Fore
SplineSet
174 443 m 1xf7c0
 175 449 174 456 174 463 c 0
 174 492 158 503 140 503 c 0
 124 503 104 496 104 471 c 0
 104 445 123 435 139 435 c 0
 150 435 163 439 174 443 c 1xf7c0
402 455 m 1
 402 481 389 503 362 503 c 0
 340 503 328 492 328 469 c 0
 328 446 340 435 362 435 c 0
 374 435 388 444 402 455 c 1
691 208 m 2
 691 83 729 56 801 56 c 0
 880 56 902 96 902 208 c 2
 902 524 l 2
 902 556 915 559 940 559 c 0
 969 559 976 553 976 524 c 2
 976 207 l 2
 976 48 905 0 800 0 c 0
 733 0 677 21 655 86 c 1
 642 27 581 0 498 0 c 0
 484 0 473 0 473 25 c 0
 473 55 478 58 495 58 c 0
 606 58 616 99 616 232 c 2
 616 337 l 2
 616 348.478 616.181 360.985 616.181 373.815 c 0
 616.181 434.758 612.087 503 565 503 c 0
 533 503 506 475 476 446 c 1
 477 440 477 434 477 428 c 2
 477 206 l 2
 477 58 395 0 284 0 c 0
 188 0 76 31 76 178 c 0xefc0
 76 268 125 322 154 382 c 1
 148 381 142 382 136 382 c 0
 88 382 45 415 45 471 c 0xf7c0
 45 526 76 559 140 559 c 0
 203 559 246 510 246 456 c 0
 246 353 151 273 151 178 c 0xefc0
 151 88 195 56 285 56 c 0
 360 56 402 99 402 206 c 1
 402 388 l 1
 389 382 375 379 360 379 c 0
 306 379 266 410 266 469 c 0
 266 518 290 559 363 559 c 0
 408 559 440 538 458 506 c 1
 489 534 524 559 563 559 c 0
 659 559 691 496 691 345 c 2
 691 208 l 2
EndSplineSet
EndChar

StartChar: uni0EDD
Encoding: 161 3805 64
Width: 1056
GlyphClass: 2
Flags: W
HStem: 0 56<192.215 356.482 566.584 631 757.69 899.372> 124 53<568.676 633.438> 379 56<107.687 153.689 330.371 401.344> 503 56<106.42 170.907 329.522 395.877 541.423 622.741>
VStem: 45 59<437.581 500.203> 76 75<97.1953 261.335> 174 72<443.282 499.397> 266 62<436.454 500.646> 402 75<106.513 386 439.75 445.908> 506 59<56.2554 121.578> 634 75<96.1842 121.521 168 493.149> 921 75<78.6181 555.991>
AnchorPoint: "cbelow" 885 0 basechar 0
AnchorPoint: "ldia" 855 0 basechar 0
AnchorPoint: "udia" 600 600 basechar 0
AnchorPoint: "cabove" 690 600 basechar 0
LayerCount: 2
Back
SplineSet
600 124 m 0xf3f0
 578 124 565 106 565 88 c 0
 565 70 575 53 603 53 c 0
 617 53 634 67 634 96 c 2
 634 107 l 1
 622 118 611 124 600 124 c 0xf3f0
693 53 m 1
 675 18 641 0 595 0 c 0
 552 0 506 29 506 95 c 0
 506 112 525 177 597 177 c 0
 610 177 622 173 634 168 c 1
 634 442 l 2
 634 495 598 502 584 502 c 0
 557 502 521 462 477 428 c 1
 477 206 l 2
 477 58 395 0 284 0 c 0
 188 0 76 31 76 178 c 0xf7f0
 76 268 125 324 154 384 c 1
 148 383 142 382 136 382 c 0
 88 382 45 415 45 471 c 0xfbf0
 45 526 76 559 140 559 c 0
 203 559 246 510 246 456 c 0
 246 353 151 273 151 178 c 0xf7f0
 151 87 196 56 285 56 c 0
 358 56 401 98 402 206 c 1
 402 386 l 1
 389 382 375 379 360 379 c 0
 306 379 266 410 266 469 c 0
 266 518 290 559 363 559 c 0
 412 559 445 535 462 499 c 1
 500 529 543 559 585 559 c 0
 682 559 709 503 709 414 c 2
 709 129 l 2
 709 124 709 119 709 114 c 1
 744 84 782 56 831 56 c 0
 903 56 921 85 921 177 c 2
 921 527 l 2
 921 557 942 557 960 557 c 2
 963 557 l 2
 983 557 996 555 996 527 c 2
 996 206 l 2
 996 82 968 0 836 0 c 0
 772 0 728 25 693 53 c 1
402 452 m 1
 400 479 390 503 362 503 c 0
 340 503 328 492 328 469 c 0
 328 446 340 436 362 436 c 0
 373 436 387 442 402 452 c 1
173 443 m 1
 174 449 174 456 174 463 c 0
 174 492 158 503 140 503 c 0
 124 503 104 496 104 471 c 0xfbf0
 104 445 123 436 139 436 c 0
 150 436 162 439 173 443 c 1
EndSplineSet
Fore
SplineSet
174 443 m 1xfbf0
 175 449 174 456 174 463 c 0
 174 492 158 503 140 503 c 0
 124 503 104 496 104 471 c 0
 104 445 123 435 139 435 c 0
 150 435 163 439 174 443 c 1xfbf0
402 452 m 1
 402 479 390 503 362 503 c 0
 340 503 328 492 328 469 c 0
 328 446 340 435 362 435 c 0
 373 435 387 442 402 452 c 1
693 53 m 1
 675 18 641 0 595 0 c 0
 552 0 506 29 506 95 c 0
 506 112 525 177 597 177 c 0
 610 177 622 173 634 168 c 1
 634 442 l 2
 634 495 598 503 584 503 c 0
 557 503 521 462 477 428 c 1
 477 206 l 2
 477 58 395 0 284 0 c 0
 188 0 76 31 76 178 c 0xf7f0
 76 268 125 322 154 382 c 1
 148 381 142 382 136 382 c 0
 88 382 45 415 45 471 c 0xfbf0
 45 526 76 559 140 559 c 0
 203 559 246 510 246 456 c 0
 246 353 151 273 151 178 c 0xf7f0
 151 87 196 56 285 56 c 0
 358 56 402 98 402 206 c 1
 402 386 l 1
 389 382 375 379 360 379 c 0
 306 379 266 410 266 469 c 0
 266 518 290 559 363 559 c 0
 412 559 450 535 465 485 c 1
 497 519 543 559 585 559 c 0
 682 559 709 503 709 414 c 2
 709 114 l 1
 744 84 782 56 831 56 c 0
 903 56 921 85 921 177 c 2
 921 527 l 2
 921 557 942 557 960 557 c 2
 963 557 l 2
 983 557 996 555 996 527 c 2
 996 206 l 2
 996 82 968 0 836 0 c 0
 772 0 728 25 693 53 c 1
600 124 m 0
 578 124 565 106 565 88 c 0
 565 70 575 53 603 53 c 0
 617 53 634 67 634 96 c 2
 634 107 l 1
 622 118 611 124 600 124 c 0
EndSplineSet
EndChar

StartChar: uni0E81
Encoding: 97 3713 65
Width: 650
GlyphClass: 2
Flags: W
HStem: 0 56<100.635 165.922> 124 53<102.33 167.436> 382 53<101.911 167.415> 506 53<102.418 164.285 330.393 476.567>
VStem: 40 59<57.9916 121.09 438.241 503.381> 168 75<58.25 122.523 170 388 437.17 444.518> 515 75<0.599731 468.399>
AnchorPoint: "cbelow" 480 0 basechar 0
AnchorPoint: "ldia" 490 0 basechar 0
AnchorPoint: "udia" 300 600 basechar 0
AnchorPoint: "cabove" 390 600 basechar 0
LayerCount: 2
Fore
SplineSet
168 116 m 1
 157 120 144 124 133 124 c 0
 121 124 99 115 99 88 c 0
 99 65 117 56 132 56 c 0
 159 56 168 76 168 87 c 2
 168 116 l 1
168 448 m 1
 168 463 l 2
 168 484 159 506 133 506 c 0
 111 506 99 488 99 471 c 0
 99 453 111 435 134 435 c 0
 144 435 155 440 168 448 c 1
233 494 m 1
 278 526 334 559 405 559 c 0
 539 559 590 495 590 339 c 2
 590 32 l 2
 590 3 583 0 554 0 c 0
 529 0 515 0 515 32 c 2
 515 388 l 2
 515 445 497 503 407 503 c 0
 343 503 292 464 243 430 c 1
 243 181 l 2
 243 95 242 0 128 0 c 0
 82 0 40 34 40 85 c 0
 40 131 71 177 128 177 c 0
 141 177 155 174 168 170 c 1
 168 388 l 1
 156 384 144 382 131 382 c 0
 82 382 40 415 40 474 c 0
 40 525 82 559 129 559 c 0
 175 559 215 539 233 494 c 1
EndSplineSet
EndChar

StartChar: exclam
Encoding: 3 33 67
Width: 224
GlyphClass: 2
Flags: W
HStem: -15 112<67.6142 157.311>
VStem: 55 115<-1.9126 83.9126> 78 69<411.767 790.665>
LayerCount: 2
Fore
SplineSet
170 41 m 0xc0
 170 11 143 -15 112 -15 c 0
 82 -15 55 11 55 41 c 0
 55 71 82 97 112 97 c 0
 143 97 170 71 170 41 c 0xc0
112 794 m 0
 149 794 147 744 147 643 c 0
 146 507 141 383 128 262 c 0
 119 183 118 176 112 176 c 0
 106 176 105 183 97 263 c 1
 83 383 79 507 78 643 c 0xa0
 78 759 80 794 112 794 c 0
EndSplineSet
EndChar

StartChar: quotedbl
Encoding: 4 34 68
Width: 394
GlyphClass: 2
Flags: W
HStem: 378 250<79.6726 132.327 258.718 312.327>
VStem: 80 52<378 592.931> 259 53<378 596.832>
LayerCount: 2
Fore
SplineSet
332 628 m 1
 325 545 319 461 312 378 c 1
 259 378 l 1
 253 461 246 545 240 628 c 1
 332 628 l 1
152 628 m 1
 145 545 139 461 132 378 c 1
 80 378 l 1
 73 461 67 545 60 628 c 1
 152 628 l 1
EndSplineSet
EndChar

StartChar: numbersign
Encoding: 5 35 69
Width: 504
GlyphClass: 2
Flags: W
HStem: 108 50<54 129 185 296 352 449> 275 50<54 149 206 316 373 449>
VStem: 111 50<-29 21> 176 50<428 478> 278 50<-29 21> 343 50<428 478>
DStem2: 111 -29 161 -29 0.127164 0.991882<6.35822 138.177 194.892 306.364 363.207 511.15> 278 -29 328 -29 0.127164 0.991882<6.35822 138.177 194.892 306.364 363.207 511.15>
LayerCount: 2
Fore
SplineSet
449 108 m 1
 346 108 l 1
 328 -29 l 1
 278 -29 l 1
 296 108 l 1
 179 108 l 1
 161 -29 l 1
 111 -29 l 1
 129 108 l 1
 54 108 l 1
 54 158 l 1
 135 158 l 1
 140 197 144 236 149 275 c 1
 54 275 l 1
 54 325 l 1
 156 325 l 1
 176 478 l 1
 226 478 l 1
 206 325 l 1
 323 325 l 1
 343 478 l 1
 393 478 l 1
 373 325 l 1
 449 325 l 1
 449 275 l 1
 366 275 l 1
 361 236 357 197 352 158 c 1
 449 158 l 1
 449 108 l 1
316 275 m 1
 199 275 l 1
 194 236 190 197 185 158 c 1
 302 158 l 1
 307 197 311 236 316 275 c 1
EndSplineSet
EndChar

StartChar: dollar
Encoding: 6 36 70
Width: 486
GlyphClass: 2
Flags: W
HStem: -14 76<156.544 223 267 337.297> 545 76<147.817 223 267 325.581>
VStem: 30 88<102.016 182> 38 88<391.283 524.138> 223 44<-91 -14 64 275 364 545 622 691> 343 88<455 528.723> 367 88<88.9463 240.878>
LayerCount: 2
Fore
SplineSet
455 168 m 0xca
 455 36 364 -6 267 -12 c 1
 267 -91 l 1
 223 -91 l 1
 223 -14 l 1
 92 -14 30 65 30 182 c 1
 118 182 l 1xea
 118 118 141 62 223 62 c 1
 223 279 l 1
 123 305 38 325 38 454 c 0
 38 549 103 621 223 621 c 1
 223 691 l 1
 267 691 l 1
 267 622 l 1
 384 622 431 542 431 455 c 1
 343 455 l 1xdc
 343 524 325 545 267 545 c 1
 267 354 l 1
 326 341 455 331 455 168 c 0xca
223 364 m 1
 223 545 l 1
 130 545 126 501 126 451 c 0xd8
 126 379 161 382 223 364 c 1
367 162 m 0xca
 367 256 325 261 267 275 c 1
 267 64 l 1
 335 65 367 88 367 162 c 0xca
EndSplineSet
EndChar

StartChar: percent
Encoding: 7 37 71
Width: 609
GlyphClass: 2
Flags: W
HStem: -29 48<409.231 510.329> 165 49<409.044 510.329> 205 48<98.255 198.63> 399 49<96.7295 198.63>
VStem: 27 49<275.26 378.727> 221 49<275.26 376.772> 340 48<41.0422 144.509> 533 48<41.0422 142.557>
DStem2: 103 -34 141 -66 0.577055 0.816706<0 630.333>
LayerCount: 2
Fore
SplineSet
507 452 m 1x9f
 141 -66 l 1
 103 -34 l 1
 466 483 l 1
 480 473 493 462 507 452 c 1x9f
270 326 m 0
 270 264 214 205 149 205 c 0xbf
 83 205 27 264 27 326 c 0
 27 393 83 448 149 448 c 0
 214 448 270 393 270 326 c 0
581 92 m 0
 581 29 525 -29 461 -29 c 0
 396 -29 340 29 340 92 c 0
 340 158 396 214 461 214 c 0xdf
 525 214 581 158 581 92 c 0
221 326 m 0
 221 366 187 399 149 399 c 0
 107 399 76 366 76 326 c 0
 76 287 108 253 149 253 c 0xbf
 187 253 221 287 221 326 c 0
533 92 m 0
 533 132 499 165 461 165 c 0xdf
 419 165 388 132 388 92 c 0
 388 53 420 19 461 19 c 0
 499 19 533 53 533 92 c 0
EndSplineSet
EndChar

StartChar: ampersand
Encoding: 8 38 72
Width: 666
GlyphClass: 2
Flags: W
HStem: -12 74<201.704 377.409> 0 21G<515.065 659> 575 65<224.513 344.407>
VStem: 51 88<124.427 256.826> 121 85<445.069 556.892> 364 73<461.682 555.388> 475 90<186.041 357>
DStem2: 464 180 422 113 0.713282 -0.700877<-228.687 0 83.957 178.227>
LayerCount: 2
Fore
SplineSet
659 0 m 1x6e
 537 0 l 1x6e
 469 62 l 1
 422 23 349 -12 265 -12 c 0
 149 -12 51 64 51 180 c 0xb6
 51 286 115 333 188 366 c 1
 152 405 121 454 121 501 c 0
 121 582 188 640 276 640 c 0
 369 640 437 593 437 520 c 0
 437 431 355 388 300 357 c 1
 352 293 406 237 464 180 c 1
 484 238 482 291 475 357 c 1
 565 357 l 1
 567 269 555 196 519 126 c 1
 540 99 619 29 659 0 c 1x6e
364 512 m 0
 364 547 328 575 288 575 c 0
 229 575 206 543 206 508 c 0
 206 475 226 442 258 402 c 1
 317 427 364 471 364 512 c 0
422 113 m 1
 354 174 288 247 229 316 c 1
 182 305 139 240 139 183 c 0
 139 138 191 62 268 62 c 0xb6
 281 62 294 62 307 64 c 0
 347 69 387 82 422 113 c 1
EndSplineSet
EndChar

StartChar: quotesingle
Encoding: 9 39 73
Width: 320
GlyphClass: 2
Flags: W
HStem: 378 250<132.718 186.282>
VStem: 133 53<378 596.832>
LayerCount: 2
Fore
SplineSet
205 628 m 1
 199 545 192 461 186 378 c 1
 133 378 l 1
 127 461 120 545 114 628 c 1
 205 628 l 1
EndSplineSet
EndChar

StartChar: parenleft
Encoding: 10 40 74
Width: 387
GlyphClass: 2
Flags: W
VStem: 73 50<-6.63426 415.288> 282 50<-439 -389 832 882>
LayerCount: 2
Fore
SplineSet
332 -439 m 1
 282 -439 l 1
 129 -250 73 -48 73 205 c 0
 73 471 134 676 282 882 c 1
 332 882 l 1
 188 687 123 488 123 205 c 0
 123 -40 184 -256 332 -439 c 1
EndSplineSet
EndChar

StartChar: parenright
Encoding: 11 41 75
Width: 387
GlyphClass: 2
Flags: W
VStem: 54 50<-428 -378 844 894> 264 49<5.55973 426.555>
LayerCount: 2
Fore
SplineSet
313 217 m 0
 313 -37 258 -237 104 -428 c 1
 54 -428 l 1
 202 -245 264 -26 264 217 c 0
 264 498 197 699 54 894 c 1
 104 894 l 1
 252 687 313 482 313 217 c 0
EndSplineSet
EndChar

StartChar: asterisk
Encoding: 12 42 76
Width: 551
GlyphClass: 2
Flags: W
VStem: 249 55<206 397 494 685>
DStem2: 82 588 54 542 0.864233 -0.503092<0 189.528 287.95 478.203> 54 350 82 301 0.86476 0.502186<0 192.123 288.505 478.032>
LayerCount: 2
Fore
SplineSet
497 350 m 1
 487 334 478 317 468 301 c 1
 304 397 l 1
 304 206 l 1
 249 206 l 1
 249 397 l 1
 82 301 l 1
 54 350 l 1
 221 445 l 1
 54 542 l 1
 82 588 l 1
 246 493 l 1
 246 685 l 1
 304 685 l 1
 304 494 l 1
 468 588 l 1
 478 573 487 557 497 542 c 1
 329 445 l 1
 497 350 l 1
EndSplineSet
EndChar

StartChar: plus
Encoding: 13 43 77
Width: 557
GlyphClass: 2
Flags: W
HStem: 191 50<91 253 303 466>
VStem: 253 50<30 191 241 405>
LayerCount: 2
Fore
SplineSet
466 241 m 1
 466 191 l 1
 303 191 l 1
 303 30 l 1
 253 30 l 1
 253 191 l 1
 91 191 l 1
 91 241 l 1
 253 241 l 1
 253 405 l 1
 303 405 l 1
 303 241 l 1
 466 241 l 1
EndSplineSet
EndChar

StartChar: comma
Encoding: 14 44 78
Width: 226
GlyphClass: 2
Flags: W
HStem: 0 130<62.5 126.803>
VStem: 137 50<-53.694 77.5>
LayerCount: 2
Fore
SplineSet
187 52 m 0
 187 -48 131 -131 86 -147 c 1
 72 -139 l 1
 111 -111 137 -62 137 -4 c 0
 137 16 136 21 134 26 c 1
 125 19 84 0 63 0 c 0
 42 0 39 32 39 52 c 0
 39 99 77 130 113 130 c 0
 150 130 187 103 187 52 c 0
EndSplineSet
EndChar

StartChar: hyphen
Encoding: 15 45 79
Width: 483
GlyphClass: 2
Flags: W
HStem: 191 50<54 429>
LayerCount: 2
Fore
SplineSet
429 241 m 1
 429 191 l 1
 54 191 l 1
 54 241 l 1
 429 241 l 1
EndSplineSet
EndChar

StartChar: period
Encoding: 16 46 80
Width: 194
GlyphClass: 2
Flags: W
HStem: -15 112<52.0731 142.386>
VStem: 39 116<-1.36853 83.0317>
LayerCount: 2
Fore
SplineSet
155 41 m 0
 155 10 128 -15 98 -15 c 0
 67 -15 39 10 39 41 c 0
 39 71 67 97 98 97 c 0
 128 97 155 71 155 41 c 0
EndSplineSet
EndChar

StartChar: slash
Encoding: 17 47 81
Width: 483
GlyphClass: 2
Flags: W
DStem2: 54 -170 91 -207 0.331745 0.943369<0 998.908>
LayerCount: 2
Fore
SplineSet
429 757 m 1
 91 -207 l 1
 54 -170 l 1
 393 794 l 1
 429 757 l 1
EndSplineSet
EndChar

StartChar: zero
Encoding: 18 48 82
Width: 486
GlyphClass: 2
Flags: W
HStem: -14 74<183.944 301.781> 566 74<181.008 304.69>
VStem: 44 83<138.751 498.882> 358 84<138.751 498.882>
LayerCount: 2
Fore
SplineSet
442 326 m 0
 442 179 422 -14 243 -14 c 0
 64 -14 44 179 44 326 c 0
 44 475 64 640 243 640 c 0
 422 640 442 475 442 326 c 0
358 326 m 0
 358 461 344 566 243 566 c 0
 141 566 127 461 127 326 c 0
 127 190 141 60 243 60 c 0
 344 60 358 190 358 326 c 0
EndSplineSet
EndChar

StartChar: one
Encoding: 19 49 83
Width: 486
GlyphClass: 2
Flags: W
HStem: 0 21G<249 329> 451 71<112 157.997> 608 20G<226 329>
VStem: 249 80<0 522>
LayerCount: 2
Fore
SplineSet
329 0 m 1
 249 0 l 1
 249 522 l 1
 210 488 162 463 112 451 c 1
 112 522 l 1
 167 540 211 580 241 628 c 1
 329 628 l 1
 329 0 l 1
EndSplineSet
EndChar

StartChar: two
Encoding: 20 50 84
Width: 486
GlyphClass: 2
Flags: W
HStem: 0 67<149 432> 566 74<184.949 317.396>
VStem: 62 88<457 545> 344 88<356.632 538.517>
LayerCount: 2
Fore
SplineSet
432 0 m 1
 54 0 l 1
 54 80 l 1
 344 302 344 396 344 457 c 0
 344 528 321 566 250 566 c 0
 188 566 159 533 150 457 c 1
 62 457 l 1
 70 561 120 640 250 640 c 0
 373 640 432 549 432 470 c 0
 432 375 422 285 149 67 c 1
 432 67 l 1
 432 0 l 1
EndSplineSet
EndChar

StartChar: three
Encoding: 21 51 85
Width: 486
GlyphClass: 2
Flags: W
HStem: -14 68<173.476 308.482> 293 68<231 315.54> 572 68<180.966 314.289>
VStem: 39 93<97.842 165> 53 88<464 552> 349 88<393.499 539.51> 358 87<103.023 253.941>
LayerCount: 2
Fore
SplineSet
445 167 m 0xe2
 445 65 360 -14 240 -14 c 0
 98 -14 39 79 39 165 c 1
 132 165 l 1
 138 112 161 54 241 54 c 0
 300 54 358 104 358 161 c 0xf2
 358 258 323 293 231 293 c 1
 231 361 l 1
 319 361 349 394 349 480 c 0
 349 554 282 572 240 572 c 0
 185 572 152 534 141 464 c 1
 53 464 l 1
 67 577 130 640 237 640 c 0
 357 640 437 566 437 475 c 0xec
 437 390 407 354 370 329 c 1
 415 301 445 269 445 167 c 0xe2
EndSplineSet
EndChar

StartChar: four
Encoding: 22 52 86
Width: 486
GlyphClass: 2
Flags: W
HStem: 0 21G<302 382> 152 74<95 302 382 460> 608 20G<273.338 382>
VStem: 302 80<0 152 226 531>
DStem2: 24 243 95 226 0.564069 0.825728<26.0115 394.621>
LayerCount: 2
Fore
SplineSet
460 152 m 1
 382 152 l 1
 382 0 l 1
 302 0 l 1
 302 152 l 1
 24 152 l 1
 24 243 l 1
 287 628 l 1
 382 628 l 1
 382 226 l 1
 460 226 l 1
 460 152 l 1
302 226 m 1
 302 531 l 1
 95 226 l 1
 302 226 l 1
EndSplineSet
EndChar

StartChar: five
Encoding: 23 53 87
Width: 486
GlyphClass: 2
Flags: W
HStem: -12 69<170.477 299.967> 353 64<185.072 311.701> 555 73<152 399>
VStem: 45 93<91.035 152> 56 86<358 513.625> 56 77<262 299.339> 67 85<376.375 555> 352 87<114.563 308.568>
LayerCount: 2
Fore
SplineSet
439 205 m 0xe9
 439 105 358 -12 252 -12 c 0
 123 -12 45 50 45 152 c 1
 138 152 l 1xf1
 138 88 182 57 241 57 c 0
 296 57 352 106 352 203 c 0
 352 292 326 353 250 353 c 0
 191 353 156 312 133 262 c 1
 56 262 l 1xe5
 60 384 63 506 67 628 c 1
 399 628 l 1
 399 555 l 1
 152 555 l 1xe3
 149 489 145 424 142 358 c 1
 173 396 202 417 268 417 c 0
 379 417 439 317 439 205 c 0xe9
EndSplineSet
EndChar

StartChar: six
Encoding: 24 54 88
Width: 486
GlyphClass: 2
Flags: W
HStem: -14 68<176.931 317.403> 320 67<176.798 316.205> 572 68<192.052 315.717>
VStem: 41 85<308 477.646> 344 84<479 545.147> 357 88<94.9136 278.257>
LayerCount: 2
Fore
SplineSet
445 187 m 0xf4
 445 111 410 -14 250 -14 c 0
 59 -14 41 97 41 299 c 0
 41 460 71 640 253 640 c 0
 367 640 413 586 428 479 c 1
 344 479 l 1xf8
 338 551 305 572 252 572 c 0
 133 572 126 390 126 308 c 1
 151 352 187 387 259 387 c 0
 422 387 445 259 445 187 c 0xf4
357 187 m 0xf4
 357 272 326 320 247 320 c 0
 167 320 136 272 136 187 c 0
 136 103 167 54 247 54 c 0
 326 54 357 103 357 187 c 0xf4
EndSplineSet
EndChar

StartChar: seven
Encoding: 25 55 89
Width: 486
GlyphClass: 2
Flags: W
HStem: 0 21G<136 238.63> 558 70<50 358>
DStem2: 136 0 231 0 0.369667 0.929164<35.1184 600.54>
LayerCount: 2
Fore
SplineSet
437 540 m 1
 231 0 l 1
 136 0 l 1
 358 558 l 1
 50 558 l 1
 50 628 l 1
 437 628 l 1
 437 540 l 1
EndSplineSet
EndChar

StartChar: eight
Encoding: 26 56 90
Width: 486
GlyphClass: 2
Flags: W
HStem: -12 68<163.872 322.757> 299 65<178.19 309.788> 572 68<172.346 315.079>
VStem: 38 82<100.648 248.382> 56 80<404.658 536.52> 352 80<405.69 535.584> 364 85<100.648 244.56>
LayerCount: 2
Fore
SplineSet
449 161 m 0xe2
 449 32 335 -12 243 -12 c 0
 153 -12 38 32 38 161 c 0xf2
 38 259 104 309 156 332 c 1
 110 354 56 401 56 486 c 0
 56 592 156 640 243 640 c 0
 332 640 432 592 432 486 c 0xec
 432 408 378 353 328 332 c 1
 375 314 449 259 449 161 c 0xe2
352 469 m 0xec
 352 533 312 572 243 572 c 0
 176 572 136 533 136 469 c 0
 136 405 186 364 243 364 c 0
 302 364 352 405 352 469 c 0xec
364 179 m 0xf2
 364 249 322 299 243 299 c 0
 167 299 120 249 120 179 c 0
 120 108 156 56 243 56 c 0
 332 56 364 108 364 179 c 0xf2
EndSplineSet
EndChar

StartChar: nine
Encoding: 27 57 91
Width: 486
GlyphClass: 2
Flags: W
HStem: -14 68<169.529 292.552> 240 66<168.625 307.318> 572 68<167.748 308.625>
VStem: 41 88<344.693 532.87> 57 85<82.2345 149> 360 85<149.281 320>
LayerCount: 2
Fore
SplineSet
445 329 m 0xf4
 445 167 413 -14 232 -14 c 0
 118 -14 71 42 57 149 c 1
 142 149 l 1xec
 146 76 182 54 234 54 c 0
 349 54 360 230 360 320 c 1
 328 268 293 240 226 240 c 0
 62 240 41 367 41 439 c 0
 41 517 76 640 235 640 c 0
 428 640 445 530 445 329 c 0xf4
349 439 m 0
 349 524 319 572 238 572 c 0
 158 572 129 524 129 439 c 0xf4
 129 354 158 306 238 306 c 0
 319 306 349 354 349 439 c 0
EndSplineSet
EndChar

StartChar: colon
Encoding: 28 58 92
Width: 194
GlyphClass: 2
Flags: W
HStem: -15 113<52.9846 141.506> 335 113<52.9846 141.506>
VStem: 39 116<-0.601776 84.3685 348.631 433.939>
LayerCount: 2
Fore
SplineSet
155 391 m 0
 155 360 128 335 98 335 c 0
 67 335 39 360 39 391 c 0
 39 422 67 448 98 448 c 0
 128 448 155 422 155 391 c 0
155 42 m 0
 155 12 128 -15 98 -15 c 0
 67 -15 39 12 39 42 c 0
 39 73 67 98 98 98 c 0
 128 98 155 73 155 42 c 0
EndSplineSet
EndChar

StartChar: semicolon
Encoding: 29 59 93
Width: 202
GlyphClass: 2
Flags: W
HStem: -2 99<52.7334 119.056> 335 113<52.9846 141.506>
VStem: 39 117<20.1577 80.8501 349.154 434.462> 121 35<-38.2413 51>
LayerCount: 2
Fore
SplineSet
155 393 m 0xe0
 155 361 128 335 98 335 c 0
 67 335 39 361 39 393 c 0
 39 423 67 448 98 448 c 0
 128 448 155 423 155 393 c 0xe0
156 32 m 0
 156 -32 114 -83 88 -99 c 1
 85 -97 83 -95 80 -93 c 1
 106 -74 121 -43 121 6 c 0xd0
 121 10 121 14 120 18 c 1
 100 7 71 -2 60 -2 c 0
 47 -2 39 19 39 39 c 0
 39 70 67 97 95 97 c 0
 126 97 156 70 156 32 c 0
EndSplineSet
EndChar

StartChar: less
Encoding: 30 60 94
Width: 870
GlyphClass: 2
Flags: W
VStem: 174 55<232 288>
DStem2: 174 288 229 261 0.934175 0.356815<41.7456 538.8> 229 261 174 232 0.934175 -0.356815<0 497.055>
LayerCount: 2
Fore
SplineSet
695 88 m 1
 695 33 l 1
 174 232 l 1
 174 288 l 1
 695 487 l 1
 695 434 l 1
 229 261 l 1
 695 88 l 1
EndSplineSet
EndChar

StartChar: equal
Encoding: 31 61 95
Width: 562
GlyphClass: 2
Flags: W
HStem: 108 50<54 508> 275 50<54 508>
LayerCount: 2
Fore
SplineSet
508 158 m 1
 508 108 l 1
 54 108 l 1
 54 158 l 1
 508 158 l 1
508 325 m 1
 508 275 l 1
 54 275 l 1
 54 325 l 1
 508 325 l 1
EndSplineSet
EndChar

StartChar: greater
Encoding: 32 62 96
Width: 870
GlyphClass: 2
Flags: W
VStem: 640 55<232 288>
DStem2: 174 487 174 434 0.934175 -0.356815<18.9112 515.966> 174 88 174 33 0.934175 0.356815<0 497.055>
LayerCount: 2
Fore
SplineSet
695 288 m 1
 695 232 l 1
 174 33 l 1
 174 88 l 1
 640 261 l 1
 174 434 l 1
 174 487 l 1
 695 288 l 1
EndSplineSet
EndChar

StartChar: question
Encoding: 33 63 97
Width: 436
GlyphClass: 2
Flags: W
HStem: 0 108<164.494 251.242> 705 50<142.915 271.516>
VStem: 34 50<535 640.992> 154 108<11.4243 97.2495> 183 49<195 397.148> 332 50<518.134 643.853>
LayerCount: 2
Fore
SplineSet
262 54 m 0xf4
 262 19 232 0 208 0 c 0
 183 0 154 19 154 54 c 0
 154 91 183 108 208 108 c 0
 232 108 262 91 262 54 c 0xf4
382 576 m 0
 382 430 232 447 232 337 c 2
 232 195 l 1
 183 195 l 1
 183 351 l 2xec
 183 478 332 472 332 576 c 0
 332 639 275 705 208 705 c 0
 126 705 84 614 84 586 c 2
 84 535 l 1
 34 535 l 1
 34 586 l 2
 34 622 76 755 208 755 c 0
 313 755 382 669 382 576 c 0
EndSplineSet
EndChar

StartChar: at
Encoding: 34 64 98
Width: 870
GlyphClass: 2
Flags: W
HStem: -155 79<315.14 587.803> 18 76<601.115 691.765> 21 61<363.086 472.607> 367 61<364.101 477.043> 545 77<313.107 577.38>
VStem: 51 84<108.033 375.768> 241 84<125.285 323.781> 519 79<139.25 317.047 370 422> 733 84<145.632 391.939>
LayerCount: 2
Fore
SplineSet
817 259 m 0xdf80
 817 132 742 18 642 18 c 0xdf80
 587 18 551 48 527 101 c 1
 499 50 464 21 396 21 c 0xbf80
 309 21 241 109 241 226 c 0
 241 352 309 428 396 428 c 0
 451 428 482 416 519 370 c 1
 519 422 l 1
 598 422 l 1
 598 129 l 2
 598 96 630 94 648 94 c 0
 680 94 733 131 733 259 c 0
 733 472 613 545 434 545 c 0
 302 545 135 476 135 253 c 0
 135 50 237 -76 443 -76 c 0
 511 -76 533 -76 592 -61 c 1
 592 -132 l 1
 528 -154 507 -155 451 -155 c 0
 256 -155 51 -66 51 252 c 0
 51 487 237 622 428 622 c 0
 662 622 817 498 817 259 c 0xdf80
516 231 m 0
 516 305 486 367 420 367 c 0
 352 367 325 302 325 231 c 0
 325 158 343 82 420 82 c 0xbf80
 484 82 516 156 516 231 c 0
EndSplineSet
EndChar

StartChar: A
Encoding: 35 65 99
Width: 651
GlyphClass: 2
Flags: W
HStem: 0 21G<13 111.144 539.737 639> 167 74<205 442> 608 20G<266.656 380.503>
DStem2: 13 0 103 0 0.385033 0.922903<34.6529 214.96 296.346 608.114> 372 628 322 530 0.391265 -0.920278<70.624 383.536 466.114 646.797>
LayerCount: 2
Fore
SplineSet
639 0 m 1
 548 0 l 1
 479 167 l 1
 171 167 l 1
 103 0 l 1
 13 0 l 1
 275 628 l 1
 372 628 l 1
 639 0 l 1
442 241 m 1
 322 530 l 1
 205 241 l 1
 442 241 l 1
EndSplineSet
EndChar

StartChar: B
Encoding: 36 66 100
Width: 586
GlyphClass: 2
Flags: W
HStem: 0 76<156 389.438> 293 71<156 391.726> 552 76<156 394.141>
VStem: 70 86<76 293 364 552> 429 82<400.153 519.153> 448 85<127.613 247.146>
LayerCount: 2
Fore
SplineSet
533 174 m 0xf4
 533 73 443 0 344 0 c 2
 70 0 l 1
 70 628 l 1
 322 628 l 2
 423 628 511 580 511 473 c 0xf8
 511 402 456 350 402 335 c 1
 471 316 533 257 533 174 c 0xf4
429 460 m 0
 429 513 399 552 296 552 c 2
 156 552 l 1
 156 364 l 1
 294 364 l 2
 398 364 429 407 429 460 c 0
448 185 m 0xf4
 448 253 394 293 290 293 c 2
 156 293 l 1
 156 76 l 1
 294 76 l 2
 385 76 448 120 448 185 c 0xf4
EndSplineSet
EndChar

StartChar: C
Encoding: 37 67 101
Width: 592
GlyphClass: 2
Flags: W
HStem: -14 71<222.178 403.777> 571 69<229.288 408.141>
VStem: 51 90<157.478 460.373> 451 88<100.617 167 460 529.346>
LayerCount: 2
Fore
SplineSet
309 57 m 0
 390 57 451 87 451 167 c 1
 539 167 l 1
 539 67 455 -14 311 -14 c 0
 115 -14 51 139 51 309 c 0
 51 479 114 640 312 640 c 0
 470 640 536 558 536 460 c 1
 448 460 l 1
 448 533 410 571 312 571 c 0
 199 571 141 487 141 309 c 0
 141 120 203 57 309 57 c 0
EndSplineSet
EndChar

StartChar: D
Encoding: 38 68 102
Width: 625
GlyphClass: 2
Flags: W
HStem: 0 76<156 364.364> 552 76<156 373.053>
VStem: 70 86<76 552> 487 87<198.706 431.853>
LayerCount: 2
Fore
SplineSet
574 314 m 0
 574 162 502 0 265 0 c 2
 70 0 l 1
 70 628 l 1
 265 628 l 2
 502 628 574 475 574 314 c 0
487 314 m 0
 487 469 402 552 267 552 c 2
 156 552 l 1
 156 76 l 1
 267 76 l 2
 402 76 487 162 487 314 c 0
EndSplineSet
EndChar

StartChar: E
Encoding: 39 69 103
Width: 527
GlyphClass: 2
Flags: W
HStem: 0 76<176 487> 284 74<176 469> 552 76<176 478>
VStem: 90 86<76 284 358 552>
LayerCount: 2
Fore
SplineSet
487 0 m 1
 90 0 l 1
 90 628 l 1
 478 628 l 1
 478 552 l 1
 176 552 l 1
 176 358 l 1
 469 358 l 1
 469 284 l 1
 176 284 l 1
 176 76 l 1
 487 76 l 1
 487 0 l 1
EndSplineSet
EndChar

StartChar: F
Encoding: 40 70 104
Width: 495
GlyphClass: 2
Flags: W
HStem: 0 21G<90 176> 284 74<176 437> 552 76<176 455>
VStem: 90 86<0 284 358 552>
LayerCount: 2
Fore
SplineSet
437 284 m 1
 176 284 l 1
 176 0 l 1
 90 0 l 1
 90 628 l 1
 455 628 l 1
 455 552 l 1
 176 552 l 1
 176 358 l 1
 437 358 l 1
 437 284 l 1
EndSplineSet
EndChar

StartChar: G
Encoding: 41 71 105
Width: 662
GlyphClass: 2
Flags: W
HStem: -14 78<260.533 503.028> 259 76<361 505> 563 77<254.327 450.713>
VStem: 51 91<200.521 450.499> 505 87<78.9502 259 472 515.905>
LayerCount: 2
Fore
SplineSet
592 30 m 1
 514 3 416 -14 363 -14 c 0
 97 -14 51 180 51 338 c 0
 51 507 167 640 355 640 c 0
 521 640 596 539 596 472 c 1
 508 472 l 1
 508 508 451 563 363 563 c 0
 205 563 142 466 142 337 c 0
 142 196 193 64 353 64 c 0
 404 64 460 71 505 85 c 1
 505 259 l 1
 361 259 l 1
 361 335 l 1
 592 335 l 1
 592 30 l 1
EndSplineSet
EndChar

StartChar: H
Encoding: 42 72 106
Width: 616
GlyphClass: 2
Flags: W
HStem: 0 21G<90 176 478 568> 284 74<176 478> 608 20G<90 176 478 568>
VStem: 90 86<0 284 358 628> 478 90<0 284 358 628>
LayerCount: 2
Fore
SplineSet
568 0 m 1
 478 0 l 1
 478 284 l 1
 176 284 l 1
 176 0 l 1
 90 0 l 1
 90 628 l 1
 176 628 l 1
 176 358 l 1
 478 358 l 1
 478 628 l 1
 568 628 l 1
 568 0 l 1
EndSplineSet
EndChar

StartChar: I
Encoding: 43 73 107
Width: 227
GlyphClass: 2
Flags: W
HStem: 0 21G<70 156> 608 20G<70 156>
VStem: 70 86<0 628>
LayerCount: 2
Fore
SplineSet
156 0 m 1
 70 0 l 1
 70 628 l 1
 156 628 l 1
 156 0 l 1
EndSplineSet
EndChar

StartChar: J
Encoding: 44 74 108
Width: 495
GlyphClass: 2
Flags: W
HStem: -14 78<169.413 297.282> 608 20G<337 425>
VStem: 51 87<95.2217 168> 337 88<106.933 628>
LayerCount: 2
Fore
SplineSet
425 187 m 2
 425 67 346 -14 232 -14 c 0
 123 -14 51 62 51 168 c 1
 138 168 l 1
 139 86 185 64 237 64 c 0
 290 64 337 104 337 187 c 2
 337 628 l 1
 425 628 l 1
 425 187 l 2
EndSplineSet
EndChar

StartChar: K
Encoding: 45 75 109
Width: 578
GlyphClass: 2
Flags: W
HStem: 0 21G<70 156 421.9 557> 608 20G<70 156 396.597 524>
VStem: 70 86<0 331 360 628> 416 108<520 628> 439 118<0 118>
DStem2: 156 360 258 357 0.700493 0.71366<69.3093 373.389> 258 357 156 331 0.642083 -0.766635<0 389.906>
LayerCount: 2
Fore
SplineSet
557 0 m 1xe8
 439 0 l 1xe8
 156 331 l 1
 156 0 l 1
 70 0 l 1
 70 628 l 1
 156 628 l 1
 156 360 l 1
 416 628 l 1
 524 628 l 1xf0
 258 357 l 1
 557 0 l 1xe8
EndSplineSet
EndChar

StartChar: L
Encoding: 46 76 110
Width: 460
GlyphClass: 2
Flags: W
HStem: 0 76<156 435> 608 20G<70 156>
VStem: 70 86<76 628>
LayerCount: 2
Fore
SplineSet
435 0 m 1
 70 0 l 1
 70 628 l 1
 156 628 l 1
 156 76 l 1
 435 76 l 1
 435 0 l 1
EndSplineSet
EndChar

StartChar: M
Encoding: 47 77 111
Width: 780
GlyphClass: 2
Flags: W
HStem: 0 121<293.5 483.5> 608 20G<70 215.179 564.821 710>
VStem: 70 86<0 540> 624 86<0 545>
DStem2: 208 628 156 540 0.344255 -0.938876<64.7199 538.665> 390 121 423 0 0.346024 0.938225<0 478.777>
LayerCount: 2
Fore
SplineSet
710 0 m 1
 624 0 l 1
 624 545 l 1
 423 0 l 1
 354 0 l 1
 288 180 222 360 156 540 c 1
 156 0 l 1
 70 0 l 1
 70 628 l 1
 208 628 l 1
 390 121 l 1
 572 628 l 1
 710 628 l 1
 710 0 l 1
EndSplineSet
EndChar

StartChar: N
Encoding: 48 78 112
Width: 628
GlyphClass: 2
Flags: W
HStem: 0 21G<70 156 423.183 560> 608 20G<70 239.5 472 560>
VStem: 70 86<0 514> 472 88<112 628>
DStem2: 193 628 156 514 0.475624 -0.879649<82.6819 586.598>
LayerCount: 2
Fore
SplineSet
560 0 m 1
 434 0 l 1
 156 514 l 1
 156 0 l 1
 70 0 l 1
 70 628 l 1
 193 628 l 1
 286 456 379 284 472 112 c 1
 472 628 l 1
 560 628 l 1
 560 0 l 1
EndSplineSet
EndChar

StartChar: O
Encoding: 49 79 113
Width: 672
GlyphClass: 2
Flags: W
HStem: -14 78<246.951 427.008> 563 77<238.51 435.409>
VStem: 51 91<187.257 458.309> 530 91<187.257 458.309>
LayerCount: 2
Fore
SplineSet
621 326 m 0
 621 146 530 -14 337 -14 c 0
 145 -14 51 146 51 326 c 0
 51 505 145 640 337 640 c 0
 530 640 621 505 621 326 c 0
530 326 m 0
 530 458 489 563 337 563 c 0
 185 563 142 458 142 326 c 0
 142 194 185 64 337 64 c 0
 489 64 530 194 530 326 c 0
EndSplineSet
EndChar

StartChar: P
Encoding: 50 80 114
Width: 542
GlyphClass: 2
Flags: W
HStem: 0 21G<70 156> 267 76<156 361.39> 552 76<156 361.39>
VStem: 70 86<0 267 343 552> 405 84<380.551 512.242>
LayerCount: 2
Fore
SplineSet
489 446 m 0
 489 288 367 267 247 267 c 2
 156 267 l 1
 156 0 l 1
 70 0 l 1
 70 628 l 1
 247 628 l 2
 367 628 489 604 489 446 c 0
405 446 m 0
 405 524 354 552 250 552 c 2
 156 552 l 1
 156 343 l 1
 250 343 l 2
 354 343 405 369 405 446 c 0
EndSplineSet
EndChar

StartChar: Q
Encoding: 51 81 115
Width: 683
GlyphClass: 2
Flags: W
HStem: -14 78<246.775 502.523 527 578.562> 0 60<338.217 421.548 527 656> 563 77<238.324 435.409>
VStem: 51 91<187.472 458.309> 530 91<185.681 458.309>
LayerCount: 2
Fore
SplineSet
656 0 m 1x78
 420 0 l 1x78
 387 -9 363 -14 337 -14 c 0xb8
 144 -14 51 147 51 326 c 0
 51 505 144 640 337 640 c 0
 530 640 621 505 621 326 c 0
 621 218 589 115 527 60 c 1
 656 60 l 1
 656 0 l 1x78
530 326 m 0
 530 458 489 563 337 563 c 0
 185 563 142 458 142 326 c 0
 142 194 185 64 337 64 c 0xb8
 489 64 530 194 530 326 c 0
EndSplineSet
EndChar

StartChar: R
Encoding: 52 82 116
Width: 548
GlyphClass: 2
Flags: W
HStem: 0 21G<70 156 396.5 511> 285 75<156 348.594> 552 76<156 371.129>
VStem: 70 86<0 285 360 552> 407 88<394.49 516.421>
LayerCount: 2
Fore
SplineSet
511 0 m 1
 422 0 l 1
 371 221 384 272 303 282 c 0
 285 284 261 285 232 285 c 2
 156 285 l 1
 156 0 l 1
 70 0 l 1
 70 628 l 1
 268 628 l 2
 416 628 495 584 495 455 c 0
 495 393 439 350 378 320 c 1
 414 312 441 295 458 253 c 0
 477 205 473 105 511 0 c 1
407 455 m 0
 407 530 352 552 267 552 c 2
 156 552 l 1
 156 360 l 1
 267 360 l 2
 352 360 407 384 407 455 c 0
EndSplineSet
EndChar

StartChar: S
Encoding: 53 83 117
Width: 575
GlyphClass: 2
Flags: W
HStem: -14 78<190.649 385.926> 563 77<181.181 376.039>
VStem: 51 90<117.894 187> 60 87<412.986 529.564> 410 88<470 528.602> 437 85<107.32 229.646>
LayerCount: 2
Fore
SplineSet
522 174 m 0xd4
 522 27 381 -14 259 -14 c 0
 141 -14 51 64 51 187 c 1
 141 187 l 1
 141 120 188 64 258 64 c 0
 328 64 437 70 437 167 c 0xe4
 437 367 60 199 60 469 c 0
 60 578 177 640 273 640 c 0
 385 640 498 598 498 470 c 1
 410 470 l 1xd8
 410 555 338 563 270 563 c 0
 203 563 147 541 147 466 c 0
 147 303 522 431 522 174 c 0xd4
EndSplineSet
EndChar

StartChar: T
Encoding: 54 84 118
Width: 533
GlyphClass: 2
Flags: W
HStem: 0 21G<223 311> 552 76<18 223 311 516>
VStem: 223 88<0 552>
LayerCount: 2
Fore
SplineSet
516 552 m 1
 311 552 l 1
 311 0 l 1
 223 0 l 1
 223 552 l 1
 18 552 l 1
 18 628 l 1
 516 628 l 1
 516 552 l 1
EndSplineSet
EndChar

StartChar: U
Encoding: 55 85 119
Width: 640
GlyphClass: 2
Flags: W
HStem: -14 78<225.855 414.973> 608 20G<70 156 483 571>
VStem: 70 86<145.829 628> 483 88<145.047 628>
LayerCount: 2
Fore
SplineSet
571 279 m 2
 571 70 495 -14 320 -14 c 0
 145 -14 70 70 70 279 c 2
 70 628 l 1
 156 628 l 1
 156 279 l 2
 156 91 232 64 320 64 c 0
 405 64 483 89 483 279 c 2
 483 628 l 1
 571 628 l 1
 571 279 l 2
EndSplineSet
EndChar

StartChar: V
Encoding: 56 86 120
Width: 568
GlyphClass: 2
Flags: W
HStem: 0 112<179 388> 608 20G<13 117.705 450.295 555>
DStem2: 111 628 13 628 0.333291 -0.942824<0 544.157> 284 112 332 0 0.334625 0.942351<0 544.143>
LayerCount: 2
Fore
SplineSet
555 628 m 1
 332 0 l 1
 235 0 l 1
 13 628 l 1
 111 628 l 1
 284 112 l 1
 457 628 l 1
 555 628 l 1
EndSplineSet
EndChar

StartChar: W
Encoding: 57 87 121
Width: 845
GlyphClass: 2
Flags: W
HStem: 0 130<501 711> 608 20G<13 127 364.659 497 717 832>
VStem: 13 92<536 628> 739 93<535 628>
DStem2: 237 130 276 0 0.269356 0.963041<0 427.343> 475 628 422 522 0.265929 -0.963993<88.089 515.171>
LayerCount: 2
Fore
SplineSet
832 628 m 1
 646 0 l 1
 566 0 l 1
 518 174 470 348 422 522 c 1
 276 0 l 1
 199 0 l 1
 13 628 l 1
 105 628 l 1
 149 462 193 296 237 130 c 1
 370 628 l 1
 475 628 l 1
 519 462 563 296 607 130 c 1
 651 296 695 462 739 628 c 1
 832 628 l 1
EndSplineSet
EndChar

StartChar: X
Encoding: 58 88 122
Width: 612
GlyphClass: 2
Flags: W
HStem: 0 21G<21 136.941 465.838 590> 608 20G<51 174.931 444.5 560>
VStem: 21 103<0 103> 51 111<517 628> 457 103<525 628> 479 111<0 111>
DStem2: 21 0 124 0 0.570298 0.821438<58.7407 58.7407 495.398 764.513> 162 628 51 628 0.563173 -0.826339<0 276.187 371.895 697.467>
LayerCount: 2
Fore
SplineSet
590 0 m 1xc4
 479 0 l 1
 300 272 l 1
 124 0 l 1
 21 0 l 1xe4
 252 335 l 1
 51 628 l 1
 162 628 l 1
 312 396 l 1
 457 628 l 1
 560 628 l 1xd8
 358 335 l 1
 590 0 l 1xc4
EndSplineSet
EndChar

StartChar: Y
Encoding: 59 89 123
Width: 580
GlyphClass: 2
Flags: W
HStem: 0 21G<246 332> 608 20G<13 131.523 455.543 565>
VStem: 246 86<0 250>
DStem2: 120 628 13 628 0.524726 -0.851271<0 348.386> 294 326 332 250 0.524726 0.851271<0 347.862>
LayerCount: 2
Fore
SplineSet
565 628 m 1
 332 250 l 1
 332 0 l 1
 246 0 l 1
 246 250 l 1
 13 628 l 1
 120 628 l 1
 294 326 l 1
 467 628 l 1
 565 628 l 1
EndSplineSet
EndChar

StartChar: Z
Encoding: 60 90 124
Width: 536
GlyphClass: 2
Flags: W
HStem: 0 76<135 496> 552 76<56 393>
DStem2: 39 95 135 76 0.612383 0.790562<43.7681 578.07>
LayerCount: 2
Fore
SplineSet
496 0 m 1
 39 0 l 1
 39 95 l 1
 393 552 l 1
 56 552 l 1
 56 628 l 1
 487 628 l 1
 487 531 l 1
 135 76 l 1
 496 76 l 1
 496 0 l 1
EndSplineSet
EndChar

StartChar: bracketleft
Encoding: 61 91 125
Width: 344
GlyphClass: 2
Flags: W
HStem: -173 44<167 253> 583 45<167 253>
VStem: 92 161<-173 -129 583 628> 92 75<-129 583>
LayerCount: 2
Fore
SplineSet
253 -173 m 1xe0
 92 -173 l 1
 92 628 l 1
 253 628 l 1
 253 583 l 1xe0
 167 583 l 1
 167 -129 l 1xd0
 253 -129 l 1
 253 -173 l 1xe0
EndSplineSet
EndChar

StartChar: backslash
Encoding: 62 92 126
Width: 483
GlyphClass: 2
Flags: W
DStem2: 91 794 54 757 0.331745 -0.943369<22.6301 1021.54>
LayerCount: 2
Fore
SplineSet
429 -170 m 1
 393 -207 l 1
 54 757 l 1
 91 794 l 1
 429 -170 l 1
EndSplineSet
EndChar

StartChar: bracketright
Encoding: 63 93 127
Width: 344
GlyphClass: 2
Flags: W
HStem: -173 44<92 179> 583 45<92 179>
VStem: 92 161<-173 -129 583 628> 179 74<-129 583>
LayerCount: 2
Fore
SplineSet
253 -173 m 1xe0
 92 -173 l 1
 92 -129 l 1xe0
 179 -129 l 1
 179 583 l 1xd0
 92 583 l 1
 92 628 l 1
 253 628 l 1
 253 -173 l 1xe0
EndSplineSet
EndChar

StartChar: asciicircum
Encoding: 64 94 128
Width: 442
GlyphClass: 2
Flags: W
HStem: 792 55<193.5 248.5>
DStem2: 0 625 26 599 0.705509 0.708701<0 274.271> 221 847 221 792 0.705509 -0.708701<38.9786 313.249>
LayerCount: 2
Fore
SplineSet
442 625 m 1
 416 599 l 1
 221 792 l 1
 26 599 l 1
 0 625 l 1
 221 847 l 1
 442 625 l 1
EndSplineSet
EndChar

StartChar: underscore
Encoding: 65 95 129
Width: 562
GlyphClass: 2
Flags: W
HStem: -134 50<0 562>
LayerCount: 2
Fore
SplineSet
562 -134 m 1
 0 -134 l 1
 0 -84 l 1
 562 -84 l 1
 562 -134 l 1
EndSplineSet
EndChar

StartChar: grave
Encoding: 66 96 130
Width: 199
GlyphClass: 2
Flags: W
HStem: 521 150
VStem: -22 174
LayerCount: 2
Fore
SplineSet
152 521 m 1
 100 521 l 1
 -22 671 l 1
 65 671 l 1
 94 621 123 571 152 521 c 1
EndSplineSet
EndChar

StartChar: a
Encoding: 67 97 131
Width: 480
GlyphClass: 2
Flags: W
HStem: -12 59<147.518 287.037> 0 21G<349.5 429> 217 56<183.039 336.523> 387 58<169.208 313.623>
VStem: 42 81<71.096 172.577> 65 81<317 363.327> 337 80<100.713 215.875 273 364.952> 352 77<0 60.9716>
LayerCount: 2
Fore
SplineSet
429 0 m 1x71
 352 0 l 1x71
 347 22 344 40 341 62 c 1
 301 12 267 -12 209 -12 c 0
 135 -12 42 29 42 114 c 0xb9
 42 246 176 273 278 273 c 2
 338 273 l 1
 347 338 327 387 243 387 c 0
 199 387 146 369 146 317 c 1
 65 317 l 1
 65 420 154 445 240 445 c 0
 299 445 385 437 408 372 c 1
 416 353 417 302 417 265 c 2
 417 158 l 2xb6
 417 121 415 34 429 0 c 1x71
337 214 m 1xba
 327 215 305 217 293 217 c 0
 235 217 123 198 123 124 c 0
 123 76 162 47 209 47 c 0
 317 47 337 123 337 214 c 1xba
EndSplineSet
EndChar

StartChar: b
Encoding: 68 98 132
Width: 513
GlyphClass: 2
Flags: W
HStem: -12 59<193.765 323.032> 0 21G<60 139> 396 49<198.716 329.806> 608 20G<60 136>
VStem: 60 76<0 51 114.711 324.104 375 628> 385 85<121.587 333.221>
LayerCount: 2
Fore
SplineSet
470 235 m 0x7c
 470 74 373 -12 285 -12 c 0xbc
 217 -12 169 19 139 51 c 1
 139 0 l 1
 60 0 l 1
 60 628 l 1
 136 628 l 1
 136 375 l 1
 158 407 200 445 284 445 c 0
 428 445 470 314 470 235 c 0x7c
385 227 m 0
 385 313 354 396 264 396 c 0
 177 396 138 311 138 227 c 0
 138 109 180 47 262 47 c 0
 331 47 385 114 385 227 c 0
EndSplineSet
EndChar

StartChar: c
Encoding: 69 99 133
Width: 452
GlyphClass: 2
Flags: W
HStem: -12 59<167.975 299.443> 387 58<165.71 303.27>
VStem: 44 77<100.196 336.387> 332 78<81.1013 146 299 359.987>
LayerCount: 2
Fore
SplineSet
410 146 m 1
 410 67 366 -12 235 -12 c 0
 105 -12 44 65 44 217 c 0
 44 369 97 445 227 445 c 0
 358 445 414 384 405 299 c 1
 328 299 l 1
 340 367 278 387 221 387 c 0
 165 387 121 343 121 217 c 0
 121 92 162 47 235 47 c 0
 311 47 332 108 332 146 c 1
 410 146 l 1
EndSplineSet
EndChar

StartChar: d
Encoding: 70 100 134
Width: 514
GlyphClass: 2
Flags: W
HStem: -12 63<185.7 312.792> 0 21G<375 452> 394 51<177.956 300.46> 608 20G<375 452>
VStem: 44 79<124.556 325.954> 375 77<0 50 127.049 305.377 378 628>
LayerCount: 2
Fore
SplineSet
452 0 m 1x7c
 375 0 l 1x7c
 375 50 l 1
 351 21 304 -12 246 -12 c 0xbc
 145 -12 44 82 44 209 c 0
 44 314 89 445 224 445 c 0
 286 445 342 424 375 378 c 1
 375 628 l 1
 452 628 l 1
 452 0 l 1x7c
372 214 m 0
 372 309 316 394 237 394 c 0
 153 394 123 299 123 220 c 0
 123 129 173 51 249 51 c 0xbc
 335 51 372 141 372 214 c 0
EndSplineSet
EndChar

StartChar: e
Encoding: 71 101 135
Width: 484
GlyphClass: 2
Flags: W
HStem: -12 57<178.211 311.918> 205 57<127 355.133> 391 54<180.158 316.551>
VStem: 44 83<110.013 205 262 330.055> 354 86<262 350.125>
LayerCount: 2
Fore
SplineSet
437 139 m 1
 425 67 370 -12 241 -12 c 0
 97 -12 44 117 44 217 c 0
 44 325 94 445 247 445 c 0
 417 445 440 314 440 246 c 0
 440 233 439 218 437 205 c 1
 127 205 l 1
 127 115 159 45 243 45 c 0
 321 45 349 100 354 139 c 1
 437 139 l 1
354 262 m 1
 361 325 337 391 243 391 c 0
 158 391 135 312 127 262 c 1
 354 262 l 1
EndSplineSet
EndChar

StartChar: f
Encoding: 72 102 136
Width: 287
GlyphClass: 2
Flags: W
HStem: 0 21G<95 174> 378 57<9 95 174 278> 574 62<185.895 286.18>
VStem: 95 79<0 378 435 560.412>
LayerCount: 2
Fore
SplineSet
287 563 m 1
 273 569 259 574 240 574 c 0
 194 574 174 555 174 498 c 2
 174 435 l 1
 278 435 l 1
 278 378 l 1
 174 378 l 1
 174 0 l 1
 95 0 l 1
 95 378 l 1
 9 378 l 1
 9 435 l 1
 95 435 l 1
 95 501 l 2
 95 608 143 636 225 636 c 0
 245 636 266 634 287 628 c 1
 287 563 l 1
EndSplineSet
EndChar

StartChar: g
Encoding: 73 103 137
Width: 513
GlyphClass: 2
Flags: W
HStem: -173 54<179.754 323.417> 12 55<178.93 315.808> 391 54<172.568 316.529> 415 20G<373 452>
VStem: 44 80<127.498 336.786> 65 81<-87.5059 -35> 373 79<-59.8207 80 131.72 327.444 387 435>
LayerCount: 2
Fore
SplineSet
452 24 m 2xda
 452 -88 379 -173 240 -173 c 0
 97 -173 65 -76 65 -35 c 1
 146 -35 l 1xd6
 146 -94 202 -119 255 -119 c 0
 335 -119 373 -70 373 80 c 1
 350 38 289 12 235 12 c 0
 118 12 44 81 44 231 c 0
 44 354 118 445 227 445 c 0xea
 303 445 349 430 373 387 c 1
 373 435 l 1
 452 435 l 1
 452 24 l 2xda
372 229 m 0
 372 322 335 391 241 391 c 0
 150 391 124 319 124 231 c 0xea
 124 133 165 67 246 67 c 0
 338 67 372 146 372 229 c 0
EndSplineSet
EndChar

StartChar: h
Encoding: 74 104 138
Width: 498
GlyphClass: 2
Flags: W
HStem: 0 21G<60 139 358 437> 390 55<188.047 324.232> 608 20G<60 139>
VStem: 60 79<0 344.795 379 628> 358 79<0 352.484>
LayerCount: 2
Fore
SplineSet
437 0 m 1
 358 0 l 1
 358 273 l 2
 358 355 315 390 268 390 c 0
 185 390 139 335 139 296 c 2
 139 0 l 1
 60 0 l 1
 60 628 l 1
 139 628 l 1
 139 379 l 1
 166 417 208 445 275 445 c 0
 391 445 437 391 437 270 c 2
 437 0 l 1
EndSplineSet
EndChar

StartChar: i
Encoding: 75 105 139
Width: 250
GlyphClass: 2
Flags: W
HStem: 0 21G<109 188> 415 20G<109 188> 548 80<108 190>
VStem: 109 79<0 435 548 628>
LayerCount: 2
Fore
SplineSet
190 628 m 1
 190 548 l 1
 108 548 l 1
 108 628 l 1
 190 628 l 1
109 0 m 25
 109 435 l 1
 188 435 l 1
 188 0 l 25
 109 0 l 25
EndSplineSet
EndChar

StartChar: j
Encoding: 76 106 140
Width: 250
GlyphClass: 2
Flags: W
HStem: -184 70<17.5831 103.194> 415 20G<109 188> 548 80<108 190>
VStem: 109 79<-111.016 435 548 628>
LayerCount: 2
Fore
SplineSet
190 628 m 1
 190 548 l 1
 108 548 l 1
 108 628 l 1
 190 628 l 1
23 -88 m 1
 34 -102 53 -114 76 -114 c 0
 104 -114 109 -90 109 -44 c 2
 109 435 l 1
 188 435 l 1
 188 -70 l 2
 188 -125 167 -184 88 -184 c 0
 54 -184 3 -167 -26 -138 c 1
 23 -88 l 1
EndSplineSet
EndChar

StartChar: k
Encoding: 77 107 141
Width: 434
GlyphClass: 2
Flags: W
HStem: 0 21G<60 139 297.022 416> 415 20G<286.758 402> 608 20G<60 139>
VStem: 60 79<0 231 253 628> 305 97<338 435> 312 104<0 104>
DStem2: 139 253 229 246 0.675194 0.73764<55.604 246.333> 229 246 139 231 0.605165 -0.7961<0 246.069>
LayerCount: 2
Fore
SplineSet
416 0 m 1xf4
 312 0 l 1xf4
 139 231 l 1
 139 0 l 1
 60 0 l 1
 60 628 l 1
 139 628 l 1
 139 253 l 1
 305 435 l 1
 402 435 l 1xf8
 229 246 l 1
 416 0 l 1xf4
EndSplineSet
EndChar

StartChar: l
Encoding: 78 108 142
Width: 199
GlyphClass: 2
Flags: W
HStem: 0 21G<60 139> 608 20G<60 139>
VStem: 60 79<0 628>
LayerCount: 2
Fore
SplineSet
139 0 m 1
 60 0 l 1
 60 628 l 1
 139 628 l 1
 139 0 l 1
EndSplineSet
EndChar

StartChar: m
Encoding: 79 109 143
Width: 779
GlyphClass: 2
Flags: W
HStem: 0 21G<60 139 352 431 640 719> 391 54<191.383 313.513 480.961 605.305> 415 20G<60 139>
VStem: 60 79<0 340.047 375 435> 352 79<0 339.975> 640 79<0 356.648>
LayerCount: 2
Fore
SplineSet
719 0 m 1xdc
 640 0 l 1
 640 281 l 2
 640 346 609 391 542 391 c 0
 479 391 431 328 431 281 c 2
 431 0 l 1
 352 0 l 1
 352 281 l 2
 352 336 314 391 256 391 c 0xdc
 187 391 139 326 139 281 c 2
 139 0 l 1
 60 0 l 1
 60 435 l 1
 139 435 l 1xbc
 139 375 l 1
 170 417 211 445 268 445 c 0
 352 445 385 420 416 369 c 1
 455 423 502 445 557 445 c 0
 698 445 719 352 719 281 c 2
 719 0 l 1xdc
EndSplineSet
EndChar

StartChar: n
Encoding: 80 110 144
Width: 499
GlyphClass: 2
Flags: W
HStem: 0 21G<60 139 360 437> 394 51<185.501 315.286> 415 20G<60 139>
VStem: 60 79<0 347.977 379 435> 360 77<0 349.234>
LayerCount: 2
Fore
SplineSet
437 0 m 1xd8
 360 0 l 1
 360 288 l 2
 360 347 311 394 253 394 c 0xd8
 191 394 139 347 139 281 c 2
 139 0 l 1
 60 0 l 1
 60 435 l 1
 139 435 l 1xb8
 139 379 l 1
 164 415 200 445 271 445 c 0
 396 445 437 378 437 285 c 2
 437 0 l 1xd8
EndSplineSet
EndChar

StartChar: o
Encoding: 81 111 145
Width: 514
GlyphClass: 2
Flags: W
HStem: -12 57<188.621 326.119> 391 54<188.621 326.119>
VStem: 44 80<120.473 314.025> 390 82<120.473 314.025>
LayerCount: 2
Fore
SplineSet
472 217 m 0
 472 62 375 -12 258 -12 c 0
 139 -12 44 62 44 217 c 0
 44 373 139 445 258 445 c 0
 375 445 472 373 472 217 c 0
390 217 m 0
 390 299 349 391 258 391 c 0
 164 391 124 299 124 217 c 0
 124 135 164 45 258 45 c 0
 349 45 390 135 390 217 c 0
EndSplineSet
EndChar

StartChar: p
Encoding: 82 112 146
Width: 521
GlyphClass: 2
Flags: W
HStem: -173 21G<60 139> -14 58<196.762 334.181> 391 54<197.925 332.794> 415 20G<60 139>
VStem: 60 79<-173 45 112.538 321.423 379 435> 394 84<112.094 321.348>
LayerCount: 2
Fore
SplineSet
478 217 m 0xec
 478 89 423 -14 275 -14 c 0
 218 -14 176 16 139 45 c 1
 139 -173 l 1
 60 -173 l 1
 60 435 l 1
 139 435 l 1xdc
 139 379 l 1
 180 417 218 445 275 445 c 0
 423 445 478 344 478 217 c 0xec
394 217 m 0
 394 306 357 391 267 391 c 0xec
 174 391 139 306 139 217 c 0
 139 127 174 44 267 44 c 0
 357 44 394 127 394 217 c 0
EndSplineSet
EndChar

StartChar: q
Encoding: 83 113 147
Width: 521
GlyphClass: 2
Flags: W
HStem: -173 21G<381 460> -14 58<185.342 324.608> 391 54<186.753 322.624> 415 20G<381 460>
VStem: 44 82<112.094 321.348> 381 79<-173 45 109.259 324.733 379 435>
LayerCount: 2
Fore
SplineSet
460 -173 m 1xdc
 381 -173 l 1
 381 45 l 1
 344 16 302 -14 243 -14 c 0
 97 -14 44 89 44 217 c 0
 44 344 97 445 243 445 c 0xec
 302 445 341 417 381 379 c 1
 381 435 l 1
 460 435 l 1
 460 -173 l 1xdc
382 217 m 0
 382 306 346 391 255 391 c 0
 162 391 126 306 126 217 c 0
 126 127 162 44 255 44 c 0
 346 44 382 127 382 217 c 0
EndSplineSet
EndChar

StartChar: r
Encoding: 84 114 148
Width: 314
GlyphClass: 2
Flags: W
HStem: 0 21G<60 139> 364 71<194.516 299>
VStem: 60 79<0 313.805 375 435>
LayerCount: 2
Fore
SplineSet
299 364 m 1
 186 364 139 317 139 243 c 2
 139 0 l 1
 60 0 l 1
 60 435 l 1
 139 435 l 1
 139 375 l 1
 161 413 187 435 299 435 c 1
 299 364 l 1
EndSplineSet
EndChar

StartChar: s
Encoding: 85 115 149
Width: 437
GlyphClass: 2
Flags: W
HStem: -12 57<144.816 285.416> 391 54<154.485 282.165>
VStem: 44 79<68.2231 126> 54 79<285.441 369.801> 302 79<317 371.716> 313 81<71.6566 162.649>
LayerCount: 2
Fore
SplineSet
394 127 m 0xd4
 394 21 297 -12 203 -12 c 0
 115 -12 44 24 44 126 c 1
 123 126 l 1
 124 65 162 45 214 45 c 0
 260 45 313 68 313 121 c 0xe4
 313 231 54 139 54 326 c 0
 54 384 92 445 217 445 c 0
 309 445 381 423 381 317 c 1
 302 317 l 1xd8
 302 349 290 391 215 391 c 0
 171 391 133 364 133 326 c 0
 133 215 394 300 394 127 c 0xd4
EndSplineSet
EndChar

StartChar: t
Encoding: 86 116 150
Width: 305
GlyphClass: 2
Flags: W
HStem: -12 60<189.974 277.156> 379 56<24 104 183 278>
VStem: 104 79<53.3906 379 435 521>
LayerCount: 2
Fore
SplineSet
278 0 m 1
 256 -8 235 -12 214 -12 c 0
 136 -12 104 17 104 114 c 2
 104 379 l 1
 24 379 l 1
 24 435 l 1
 104 435 l 1
 104 521 l 1
 183 554 l 1
 183 435 l 1
 278 435 l 1
 278 379 l 1
 183 379 l 1
 183 114 l 2
 183 60 200 48 229 48 c 0
 247 48 264 51 278 56 c 1
 278 0 l 1
EndSplineSet
EndChar

StartChar: u
Encoding: 87 117 151
Width: 498
GlyphClass: 2
Flags: W
HStem: -12 53<181.319 311.837> 0 21G<358 437> 415 20G<60 139 358 437>
VStem: 60 79<82.3132 435> 358 79<0 56 86.3787 435>
LayerCount: 2
Fore
SplineSet
227 -12 m 0xb8
 114 -12 60 43 60 147 c 2
 60 435 l 1
 139 435 l 1
 139 146 l 2
 139 86 188 41 243 41 c 0xb8
 306 41 358 86 358 155 c 2
 358 435 l 1
 437 435 l 1
 437 0 l 1
 358 0 l 1x78
 358 56 l 1
 335 18 297 -12 227 -12 c 0xb8
EndSplineSet
EndChar

StartChar: v
Encoding: 88 118 152
Width: 466
GlyphClass: 2
Flags: W
HStem: 0 21G<184.724 280.276> 415 20G<13 111.824 361.235 452>
DStem2: 104 435 13 435 0.382352 -0.924017<0 365.019> 237 95 272 0 0.382352 0.924017<0 364.636>
LayerCount: 2
Fore
SplineSet
452 435 m 1
 272 0 l 1
 193 0 l 1
 13 435 l 1
 104 435 l 1
 237 95 l 1
 369 435 l 1
 452 435 l 1
EndSplineSet
EndChar

StartChar: w
Encoding: 89 119 153
Width: 707
GlyphClass: 2
Flags: W
HStem: 0 21G<152.287 256.5 463.556 554.713> 415 20G<13 103 295.941 411.059 605.882 694>
VStem: 13 84<351 435> 612 82<353 435>
DStem2: 97 435 13 435 0.318189 -0.948027<0 354.785> 199 95 237 0 0.309086 0.951034<0 299.932> 405 435 354 360 0.306694 -0.951808<55.7442 355.204> 508 95 548 0 0.318189 0.948027<0 355.421>
LayerCount: 2
Fore
SplineSet
694 435 m 1
 548 0 l 1
 470 0 l 1
 354 360 l 1
 315 240 276 120 237 0 c 1
 159 0 l 1
 13 435 l 1
 97 435 l 1
 199 95 l 1
 302 435 l 1
 405 435 l 1
 508 95 l 1
 612 435 l 1
 694 435 l 1
EndSplineSet
EndChar

StartChar: x
Encoding: 90 120 154
Width: 476
GlyphClass: 2
Flags: W
HStem: 0 21G<18 128.5 343.146 458> 415 20G<30 143.522 340.732 446>
VStem: 18 90<0 90> 30 99<336 435> 355 91<344 435> 358 100<0 100>
DStem2: 18 0 108 0 0.61243 0.790525<55.1187 55.1187 357.563 550.267> 129 435 30 435 0.603222 -0.797573<0 193.986 272.088 485.082>
LayerCount: 2
Fore
SplineSet
458 0 m 1xc4
 358 0 l 1
 231 171 l 1
 190 114 149 57 108 0 c 1
 18 0 l 1xe4
 190 226 l 1
 30 435 l 1
 129 435 l 1
 243 278 l 1
 355 435 l 1
 446 435 l 1xd8
 285 226 l 1
 458 0 l 1xc4
EndSplineSet
EndChar

StartChar: y
Encoding: 91 121 155
Width: 466
GlyphClass: 2
Flags: W
HStem: -178 70<95.7435 165.553> 415 20G<13 112.267 359.28 452>
DStem2: 104 435 13 435 0.393154 -0.919473<0 355.975> 199 0 243 -97 0.365652 0.930751<-122.355 0 113.651 466.306>
LayerCount: 2
Fore
SplineSet
452 435 m 1
 243 -97 l 2
 226 -143 202 -178 139 -178 c 0
 83 -178 45 -146 21 -99 c 1
 83 -66 l 1
 96 -92 112 -108 138 -108 c 0
 164 -108 176 -66 199 0 c 1
 13 435 l 1
 104 435 l 1
 240 106 l 1
 367 435 l 1
 452 435 l 1
EndSplineSet
EndChar

StartChar: z
Encoding: 92 122 156
Width: 407
GlyphClass: 2
Flags: W
HStem: 0 60<130 363> 373 62<60 273>
VStem: 44 319<0 60>
DStem2: 44 71 130 60 0.609584 0.792721<43.7043 378.997>
LayerCount: 2
Fore
SplineSet
363 0 m 1
 44 0 l 1
 44 71 l 1
 273 373 l 1
 60 373 l 1
 60 435 l 1
 363 435 l 1
 363 363 l 1
 130 60 l 1
 363 60 l 1
 363 0 l 1
EndSplineSet
EndChar

StartChar: braceleft
Encoding: 93 123 157
Width: 396
GlyphClass: 2
Flags: W
HStem: -433 49<291.009 343> 823 48<291.009 343>
VStem: 68 50<201.088 238.285> 176 50<-149.834 113.87 325.136 588.834>
LayerCount: 2
Fore
SplineSet
343 -433 m 1
 186 -433 176 -222 176 45 c 0
 176 146 68 174 68 220 c 0
 68 264 176 294 176 394 c 0
 176 660 186 871 343 871 c 1
 343 823 l 1
 241 823 226 664 226 379 c 0
 226 270 118 235 118 220 c 0
 118 204 226 169 226 60 c 0
 226 -225 241 -384 343 -384 c 1
 343 -433 l 1
EndSplineSet
EndChar

StartChar: bar
Encoding: 94 124 158
Width: 300
GlyphClass: 2
Flags: W
VStem: 127 46<-225 692>
LayerCount: 2
Fore
SplineSet
173 -225 m 1
 127 -225 l 1
 127 692 l 1
 173 692 l 1
 173 -225 l 1
EndSplineSet
EndChar

StartChar: braceright
Encoding: 95 125 159
Width: 396
GlyphClass: 2
Flags: W
HStem: -433 49<54 105.604> 823 48<54 105.604>
VStem: 171 50<-149.834 113.87 325.136 588.834> 278 50<201.088 238.285>
LayerCount: 2
Fore
SplineSet
328 220 m 0
 328 174 221 146 221 45 c 0
 221 -222 211 -433 54 -433 c 1
 54 -384 l 1
 155 -384 171 -225 171 60 c 0
 171 169 278 204 278 220 c 0
 278 235 171 270 171 379 c 0
 171 664 155 823 54 823 c 1
 54 871 l 1
 211 871 221 660 221 394 c 0
 221 294 328 264 328 220 c 0
EndSplineSet
EndChar

StartChar: asciitilde
Encoding: 96 126 160
Width: 549
GlyphClass: 2
Flags: W
HStem: 174 40<293.986 429.025> 235 40<121.128 242.071>
LayerCount: 2
Fore
SplineSet
495 232 m 1
 451 190 406 174 364 174 c 0
 285 174 233 235 188 235 c 0
 157 235 134 229 68 179 c 1
 63 191 59 203 54 215 c 1
 104 258 139 275 188 275 c 0
 256 275 290 214 364 214 c 0
 398 214 422 225 470 262 c 1
 495 232 l 1
EndSplineSet
EndChar

StartChar: uni0EDE
Encoding: 162 3806 161
Width: 742
Flags: W
HStem: 0 56<110.635 175.922> 124 53<112.33 177.436> 194 63<494 525> 327 52<391.351 448.359> 382 53<111.911 177.415> 503 56<110.878 174.749 333.643 491.04>
VStem: 50 59<57.9916 121.09 438.241 503.381> 178 75<58.25 122.523 170 388 437.17 444.518> 328 62<270.984 325.639> 449 59<260.352 325.592> 525 75<0.599731 194 277 468.399> 624 77<281.156 380.242>
AnchorPoint: "cabove" 390 600 basechar 0
AnchorPoint: "udia" 300 600 basechar 0
AnchorPoint: "ldia" 490 0 basechar 0
AnchorPoint: "cbelow" 480 0 basechar 0
LayerCount: 2
Fore
SplineSet
436 260 m 1
 443 271 449 284 449 297 c 0
 449 318 440 327 419 327 c 0
 400 327 390 317 390 299 c 0
 390 283 405 269 436 260 c 1
243 494 m 1
 288 526 344 559 415 559 c 0
 549 559 600 495 600 339 c 2
 600 277 l 1
 613 292 624 313 624 339 c 0
 624 376 637 382 660 382 c 0
 683 382 701 381 701 331 c 0
 701 286 681 225 600 203 c 1
 600 32 l 2
 600 3 593 0 564 0 c 0
 539 0 525 0 525 32 c 2
 525 194 l 1
 403 194 328 233 328 298 c 0
 328 356 375 379 419 379 c 0
 470 379 508 354 508 299 c 0
 508 275 495 257 494 257 c 1
 502 257 515 256 525 256 c 1
 525 388 l 2
 525 445 507 503 417 503 c 0
 353 503 302 464 253 430 c 1
 253 181 l 2
 253 95 252 0 138 0 c 0
 92 0 50 34 50 85 c 0
 50 131 81 177 138 177 c 0
 151 177 165 174 178 170 c 1
 178 388 l 1
 166 384 154 382 141 382 c 0
 92 382 50 415 50 474 c 0
 50 525 92 559 139 559 c 0
 185 559 225 539 243 494 c 1
178 448 m 1
 178 463 l 2
 178 484 169 506 143 506 c 0
 121 506 109 488 109 471 c 0
 109 453 121 435 144 435 c 0
 154 435 165 440 178 448 c 1
178 116 m 1
 167 120 154 124 143 124 c 0
 131 124 109 115 109 88 c 0
 109 65 127 56 142 56 c 0
 169 56 178 76 178 87 c 2
 178 116 l 1
EndSplineSet
EndChar

StartChar: uni0EDF
Encoding: 163 3807 162
Width: 698
Flags: W
HStem: 0 56<167.522 411.756> 194 62<429 460> 327 52<326.351 383.359> 382 53<125.587 190.724> 503 56<127.792 192.365>
VStem: 50 75<92.1275 195.922 327.251 389 436.712 500.211> 194 59<437.358 500.555> 263 62<270.984 325.639> 384 59<260.352 325.592> 460 75<99.3674 194 272 558.226> 571 76<283.839 380.48>
AnchorPoint: "cabove" 340 600 basechar 0
AnchorPoint: "udia" 290 600 basechar 0
AnchorPoint: "ldia" 440 0 basechar 0
AnchorPoint: "cbelow" 440 0 basechar 0
LayerCount: 2
Fore
SplineSet
125 443 m 1
 137 439 150 435 161 435 c 0
 173 435 194 444 194 471 c 0
 194 494 176 503 161 503 c 0
 134 503 125 483 125 472 c 2
 125 443 l 1
125 389 m 1
 125 372 l 2
 125 291 241 320 241 253 c 0
 241 191 125 241 125 145 c 0
 125 88 169 56 305 56 c 0
 434 56 460 112 460 169 c 2
 460 194 l 1
 337 194 263 233 263 298 c 0
 263 356 310 379 354 379 c 0
 405 379 443 354 443 299 c 0
 443 275 430 257 429 257 c 1
 438 257 449 256 460 256 c 1
 460 526 l 2
 460 558 474 559 499 559 c 0
 528 559 535 559 535 526 c 2
 535 272 l 1
 558 287 571 310 571 339 c 0
 571 376 585 382 608 382 c 0
 631 382 647 381 647 331 c 0
 647 286 621 225 535 203 c 1
 535 167 l 2
 535 48 439 0 305 0 c 0
 166 0 50 27 50 146 c 0
 50 213 109 256 176 256 c 1
 98 282 50 305 50 385 c 2
 50 428 l 2
 50 498 79 559 165 559 c 0
 211 559 253 524 253 473 c 0
 253 427 222 382 165 382 c 0
 152 382 138 385 125 389 c 1
371 260 m 1
 378 271 384 284 384 297 c 0
 384 318 375 327 354 327 c 0
 335 327 325 317 325 299 c 0
 325 283 340 269 371 260 c 1
EndSplineSet
EndChar

